<mxfile host="app.diagrams.net" modified="2021-03-09T04:19:17.492Z" agent="5.0 (Windows NT 10.0; Win64; x64) AppleWebKit/537.36 (KHTML, like Gecko) Chrome/89.0.4389.82 Safari/537.36" etag="xgmP1Tu3CzSZMSd3GL3R" version="14.4.5" type="github">
  <diagram name="Page-1" id="8378b5f6-a2b2-b727-a746-972ab9d02e00">
    <mxGraphModel dx="2942" dy="1162" grid="1" gridSize="10" guides="1" tooltips="1" connect="0" arrows="1" fold="1" page="1" pageScale="1.5" pageWidth="1169" pageHeight="827" background="#ffffff" math="0" shadow="0">
      <root>
        <mxCell id="0" />
        <mxCell id="1" parent="0" />
        <mxCell id="63" value="7" style="strokeColor=#DEEDFF;fillColor=#CCE5FF;" parent="1" vertex="1">
          <mxGeometry x="86.5" y="500" width="40" height="20" as="geometry" />
        </mxCell>
        <mxCell id="64" value="IRS设计" style="align=left;strokeColor=#DEEDFF;fillColor=#CCE5FF;" parent="1" vertex="1">
          <mxGeometry x="126.5" y="500" width="320" height="20" as="geometry" />
        </mxCell>
        <mxCell id="65" value="18 days" style="strokeColor=#DEEDFF;fillColor=#CCE5FF;" parent="1" vertex="1">
          <mxGeometry x="446.50000000000176" y="500" width="80.00000000000028" height="20" as="geometry" />
        </mxCell>
        <mxCell id="66" value="3.3" style="strokeColor=#DEEDFF;fillColor=#CCE5FF;" parent="1" vertex="1">
          <mxGeometry x="526.500000000002" y="500" width="80.00000000000028" height="20" as="geometry" />
        </mxCell>
        <mxCell id="67" value="3.26" style="strokeColor=#DEEDFF;fillColor=#CCE5FF;" parent="1" vertex="1">
          <mxGeometry x="606.5000000000016" y="500.0000000000002" width="80.00000000000028" height="20" as="geometry" />
        </mxCell>
        <mxCell id="68" value="" style="strokeColor=#DEEDFF" parent="1" vertex="1">
          <mxGeometry x="686.500000000002" y="380.0000000000002" width="20" height="520" as="geometry" />
        </mxCell>
        <mxCell id="69" value="9" style="strokeColor=#DEEDFF;fillColor=#FFFFFF;" parent="1" vertex="1">
          <mxGeometry x="86.50000000000026" y="539.9999999999999" width="40" height="20" as="geometry" />
        </mxCell>
        <mxCell id="71" value="7 days" style="strokeColor=#DEEDFF;fillColor=#FFFFFF;" parent="1" vertex="1">
          <mxGeometry x="446.500000000002" y="539.9999999999998" width="80.00000000000028" height="20" as="geometry" />
        </mxCell>
        <mxCell id="72" value="6.15" style="strokeColor=#DEEDFF;fillColor=#FFFFFF;" parent="1" vertex="1">
          <mxGeometry x="526.5000000000023" y="539.9999999999998" width="80.00000000000028" height="20" as="geometry" />
        </mxCell>
        <mxCell id="73" value="6.23" style="strokeColor=#DEEDFF;fillColor=#FFFFFF;" parent="1" vertex="1">
          <mxGeometry x="606.5000000000018" y="540.0000000000001" width="80.00000000000028" height="20" as="geometry" />
        </mxCell>
        <mxCell id="74" value="10" style="strokeColor=#DEEDFF" parent="1" vertex="1">
          <mxGeometry x="86.5" y="560" width="40" height="20" as="geometry" />
        </mxCell>
        <mxCell id="76" value="11 days" style="strokeColor=#DEEDFF" parent="1" vertex="1">
          <mxGeometry x="446.5" y="560" width="80" height="20" as="geometry" />
        </mxCell>
        <mxCell id="77" value="6.24" style="strokeColor=#DEEDFF" parent="1" vertex="1">
          <mxGeometry x="526.5000000000023" y="559.9999999999998" width="80.00000000000028" height="20" as="geometry" />
        </mxCell>
        <mxCell id="78" value="7.8" style="strokeColor=#DEEDFF" parent="1" vertex="1">
          <mxGeometry x="606.5000000000018" y="560" width="80.00000000000028" height="20" as="geometry" />
        </mxCell>
        <mxCell id="79" value="11" style="strokeColor=#DEEDFF" parent="1" vertex="1">
          <mxGeometry x="86.5" y="580" width="40" height="20" as="geometry" />
        </mxCell>
        <mxCell id="81" value="9 days" style="strokeColor=#DEEDFF" parent="1" vertex="1">
          <mxGeometry x="446.5" y="580" width="83.5" height="20" as="geometry" />
        </mxCell>
        <mxCell id="82" value="7.1" style="strokeColor=#DEEDFF" parent="1" vertex="1">
          <mxGeometry x="526.500000000002" y="580.0000000000001" width="80.00000000000028" height="20" as="geometry" />
        </mxCell>
        <mxCell id="83" value="7.13" style="strokeColor=#DEEDFF" parent="1" vertex="1">
          <mxGeometry x="606.5000000000015" y="580.0000000000005" width="80.00000000000028" height="20" as="geometry" />
        </mxCell>
        <mxCell id="84" value="12" style="strokeColor=#DEEDFF" parent="1" vertex="1">
          <mxGeometry x="86.49999999999991" y="600.0000000000002" width="40" height="20" as="geometry" />
        </mxCell>
        <mxCell id="86" value="5 days" style="strokeColor=#DEEDFF" parent="1" vertex="1">
          <mxGeometry x="446.50000000000165" y="600.0000000000001" width="80.00000000000028" height="20" as="geometry" />
        </mxCell>
        <mxCell id="87" value="7.14" style="strokeColor=#DEEDFF" parent="1" vertex="1">
          <mxGeometry x="526.5000000000019" y="600.0000000000001" width="80.00000000000028" height="20" as="geometry" />
        </mxCell>
        <mxCell id="88" value="7.20" style="strokeColor=#DEEDFF" parent="1" vertex="1">
          <mxGeometry x="606.5000000000015" y="600.0000000000005" width="80.00000000000028" height="20" as="geometry" />
        </mxCell>
        <mxCell id="89" value="13" style="strokeColor=#DEEDFF" parent="1" vertex="1">
          <mxGeometry x="86.5" y="620" width="43.5" height="20" as="geometry" />
        </mxCell>
        <mxCell id="91" value="5 days" style="strokeColor=#DEEDFF" parent="1" vertex="1">
          <mxGeometry x="446.50000000000165" y="620.0000000000003" width="80.00000000000028" height="20" as="geometry" />
        </mxCell>
        <mxCell id="92" value="7.16" style="strokeColor=#DEEDFF" parent="1" vertex="1">
          <mxGeometry x="526.5000000000019" y="620.0000000000003" width="80.00000000000028" height="20" as="geometry" />
        </mxCell>
        <mxCell id="93" value="7.22" style="strokeColor=#DEEDFF" parent="1" vertex="1">
          <mxGeometry x="606.5000000000015" y="620.0000000000007" width="80.00000000000028" height="20" as="geometry" />
        </mxCell>
        <mxCell id="94" value="14" style="strokeColor=#DEEDFF" parent="1" vertex="1">
          <mxGeometry x="86.50000000000063" y="640.0000000000007" width="40" height="20" as="geometry" />
        </mxCell>
        <mxCell id="96" value="15 days" style="strokeColor=#DEEDFF" parent="1" vertex="1">
          <mxGeometry x="446.5000000000024" y="640.0000000000007" width="80.00000000000028" height="20" as="geometry" />
        </mxCell>
        <mxCell id="97" value="7.5" style="strokeColor=#DEEDFF" parent="1" vertex="1">
          <mxGeometry x="526.5000000000027" y="640.0000000000007" width="80.00000000000028" height="20" as="geometry" />
        </mxCell>
        <mxCell id="98" value="7.23" style="strokeColor=#DEEDFF" parent="1" vertex="1">
          <mxGeometry x="606.5000000000022" y="640.0000000000009" width="80.00000000000028" height="20" as="geometry" />
        </mxCell>
        <mxCell id="99" value="15" style="strokeColor=#B20000;fillColor=#e51400;fontColor=#ffffff;" parent="1" vertex="1">
          <mxGeometry x="86.50000000000064" y="660.0000000000006" width="40" height="20" as="geometry" />
        </mxCell>
        <mxCell id="101" value="5 days" style="strokeColor=#B20000;fillColor=#e51400;fontColor=#ffffff;" parent="1" vertex="1">
          <mxGeometry x="446.5000000000024" y="660.0000000000006" width="80.00000000000028" height="20" as="geometry" />
        </mxCell>
        <mxCell id="102" value="7.26" style="strokeColor=#B20000;fillColor=#e51400;fontColor=#ffffff;" parent="1" vertex="1">
          <mxGeometry x="526.5000000000027" y="660.0000000000006" width="80.00000000000028" height="20" as="geometry" />
        </mxCell>
        <mxCell id="103" value="7.30" style="strokeColor=#B20000;fillColor=#e51400;fontColor=#ffffff;" parent="1" vertex="1">
          <mxGeometry x="606.5000000000022" y="660.0000000000008" width="80.00000000000028" height="20" as="geometry" />
        </mxCell>
        <mxCell id="194" value="" style="strokeColor=#DEEDFF" parent="1" vertex="1">
          <mxGeometry x="706.500000000002" y="380.00000000000387" width="20" height="520" as="geometry" />
        </mxCell>
        <mxCell id="195" value="" style="strokeColor=#DEEDFF" parent="1" vertex="1">
          <mxGeometry x="726.500000000002" y="380.00000000000387" width="20" height="520" as="geometry" />
        </mxCell>
        <mxCell id="196" value="" style="strokeColor=#DEEDFF" parent="1" vertex="1">
          <mxGeometry x="746.500000000002" y="380.00000000000387" width="20" height="520" as="geometry" />
        </mxCell>
        <mxCell id="197" value="" style="strokeColor=#DEEDFF" parent="1" vertex="1">
          <mxGeometry x="766.500000000002" y="380.00000000000387" width="20" height="520" as="geometry" />
        </mxCell>
        <mxCell id="198" value="" style="strokeColor=#DEEDFF;fillColor=#D4E1FF" parent="1" vertex="1">
          <mxGeometry x="786.500000000002" y="380.0000000000075" width="20" height="520" as="geometry" />
        </mxCell>
        <mxCell id="199" value="" style="strokeColor=#DEEDFF;fillColor=#D4E1FF" parent="1" vertex="1">
          <mxGeometry x="806.500000000002" y="380.0000000000075" width="20" height="520" as="geometry" />
        </mxCell>
        <mxCell id="200" value="" style="strokeColor=#DEEDFF" parent="1" vertex="1">
          <mxGeometry x="826.500000000002" y="380.0000000000075" width="20" height="520" as="geometry" />
        </mxCell>
        <mxCell id="201" value="" style="strokeColor=#DEEDFF" parent="1" vertex="1">
          <mxGeometry x="846.5000000000016" y="380.0000000000075" width="20" height="520" as="geometry" />
        </mxCell>
        <mxCell id="202" value="" style="strokeColor=#DEEDFF" parent="1" vertex="1">
          <mxGeometry x="866.5000000000016" y="380.00000000001114" width="20" height="520" as="geometry" />
        </mxCell>
        <mxCell id="203" value="" style="strokeColor=#DEEDFF" parent="1" vertex="1">
          <mxGeometry x="886.5000000000016" y="380.00000000001114" width="20" height="520" as="geometry" />
        </mxCell>
        <mxCell id="204" value="" style="strokeColor=#DEEDFF" parent="1" vertex="1">
          <mxGeometry x="906.5000000000016" y="380.00000000001114" width="20" height="520" as="geometry" />
        </mxCell>
        <mxCell id="205" value="" style="strokeColor=#DEEDFF;fillColor=#D4E1FF" parent="1" vertex="1">
          <mxGeometry x="926.5000000000018" y="380.00000000001114" width="20" height="520" as="geometry" />
        </mxCell>
        <mxCell id="206" value="" style="strokeColor=#DEEDFF;fillColor=#D4E1FF" parent="1" vertex="1">
          <mxGeometry x="946.5000000000018" y="380.0000000000148" width="20" height="520" as="geometry" />
        </mxCell>
        <mxCell id="207" value="" style="strokeColor=#DEEDFF" parent="1" vertex="1">
          <mxGeometry x="966.5000000000018" y="380.0000000000148" width="20" height="520" as="geometry" />
        </mxCell>
        <mxCell id="208" value="" style="strokeColor=#DEEDFF" parent="1" vertex="1">
          <mxGeometry x="986.5000000000018" y="380.0000000000148" width="20" height="520" as="geometry" />
        </mxCell>
        <mxCell id="209" value="" style="strokeColor=#DEEDFF" parent="1" vertex="1">
          <mxGeometry x="1006.5000000000018" y="380.0000000000002" width="20" height="520" as="geometry" />
        </mxCell>
        <mxCell id="210" value="" style="strokeColor=#DEEDFF" parent="1" vertex="1">
          <mxGeometry x="1026.5000000000018" y="380.00000000000387" width="20" height="520" as="geometry" />
        </mxCell>
        <mxCell id="211" value="" style="strokeColor=#DEEDFF" parent="1" vertex="1">
          <mxGeometry x="1046.5000000000018" y="380.00000000000387" width="20" height="520" as="geometry" />
        </mxCell>
        <mxCell id="212" value="" style="strokeColor=#DEEDFF;fillColor=#D4E1FF" parent="1" vertex="1">
          <mxGeometry x="1066.5000000000018" y="380.00000000000387" width="20" height="520" as="geometry" />
        </mxCell>
        <mxCell id="213" value="" style="strokeColor=#DEEDFF;fillColor=#D4E1FF" parent="1" vertex="1">
          <mxGeometry x="1086.5000000000018" y="380.0000000000148" width="20" height="520" as="geometry" />
        </mxCell>
        <mxCell id="214" value="" style="strokeColor=#DEEDFF" parent="1" vertex="1">
          <mxGeometry x="1106.5000000000018" y="380.0000000000184" width="20" height="520" as="geometry" />
        </mxCell>
        <mxCell id="215" value="" style="strokeColor=#DEEDFF" parent="1" vertex="1">
          <mxGeometry x="1126.5000000000018" y="380.0000000000184" width="20" height="520" as="geometry" />
        </mxCell>
        <mxCell id="216" value="" style="strokeColor=#DEEDFF" parent="1" vertex="1">
          <mxGeometry x="1146.5000000000018" y="380.0000000000184" width="20" height="520" as="geometry" />
        </mxCell>
        <mxCell id="217" value="" style="strokeColor=#DEEDFF" parent="1" vertex="1">
          <mxGeometry x="1166.500000000002" y="380.0000000000184" width="20" height="520" as="geometry" />
        </mxCell>
        <mxCell id="218" value="" style="strokeColor=#DEEDFF" parent="1" vertex="1">
          <mxGeometry x="1186.500000000002" y="380.00000000002206" width="20" height="520" as="geometry" />
        </mxCell>
        <mxCell id="219" value="" style="strokeColor=#DEEDFF;fillColor=#D4E1FF" parent="1" vertex="1">
          <mxGeometry x="1206.500000000002" y="380.00000000002206" width="20" height="520" as="geometry" />
        </mxCell>
        <mxCell id="220" value="" style="strokeColor=#DEEDFF;fillColor=#D4E1FF" parent="1" vertex="1">
          <mxGeometry x="1226.500000000002" y="380.00000000002206" width="20" height="520" as="geometry" />
        </mxCell>
        <mxCell id="221" value="" style="strokeColor=#DEEDFF" parent="1" vertex="1">
          <mxGeometry x="1246.500000000002" y="380.00000000002206" width="20" height="520" as="geometry" />
        </mxCell>
        <mxCell id="222" value="" style="strokeColor=#DEEDFF" parent="1" vertex="1">
          <mxGeometry x="1266.500000000002" y="380.0000000000257" width="20" height="520" as="geometry" />
        </mxCell>
        <mxCell id="223" value="" style="strokeColor=#DEEDFF" parent="1" vertex="1">
          <mxGeometry x="1286.500000000002" y="380.0000000000257" width="20" height="520" as="geometry" />
        </mxCell>
        <mxCell id="224" value="" style="strokeColor=#DEEDFF" parent="1" vertex="1">
          <mxGeometry x="1306.500000000002" y="380.0000000000257" width="20" height="520" as="geometry" />
        </mxCell>
        <mxCell id="225" value="" style="strokeColor=#DEEDFF" parent="1" vertex="1">
          <mxGeometry x="1326.5000000000016" y="380.0000000000257" width="20" height="520" as="geometry" />
        </mxCell>
        <mxCell id="226" value="" style="strokeColor=#DEEDFF;fillColor=#D4E1FF" parent="1" vertex="1">
          <mxGeometry x="1346.5000000000016" y="380.00000000002933" width="20" height="520" as="geometry" />
        </mxCell>
        <mxCell id="227" value="" style="strokeColor=#DEEDFF;fillColor=#D4E1FF" parent="1" vertex="1">
          <mxGeometry x="1366.5000000000016" y="380.00000000002933" width="20" height="520" as="geometry" />
        </mxCell>
        <mxCell id="228" value="" style="strokeColor=#DEEDFF" parent="1" vertex="1">
          <mxGeometry x="1386.5000000000016" y="380.00000000002933" width="20" height="520" as="geometry" />
        </mxCell>
        <mxCell id="229" value="" style="strokeColor=#DEEDFF" parent="1" vertex="1">
          <mxGeometry x="1406.5000000000016" y="380.00000000002933" width="20" height="520" as="geometry" />
        </mxCell>
        <mxCell id="230" value="" style="strokeColor=#DEEDFF" parent="1" vertex="1">
          <mxGeometry x="1426.5000000000016" y="380.00000000003297" width="20" height="520" as="geometry" />
        </mxCell>
        <mxCell id="231" value="" style="strokeColor=#DEEDFF" parent="1" vertex="1">
          <mxGeometry x="1446.5000000000016" y="380.00000000003297" width="20" height="520" as="geometry" />
        </mxCell>
        <mxCell id="232" value="" style="strokeColor=#DEEDFF" parent="1" vertex="1">
          <mxGeometry x="1466.5000000000016" y="380.00000000003297" width="20" height="520" as="geometry" />
        </mxCell>
        <mxCell id="233" value="" style="strokeColor=#DEEDFF;fillColor=#D4E1FF" parent="1" vertex="1">
          <mxGeometry x="1486.5000000000016" y="380.0000000000184" width="20" height="520" as="geometry" />
        </mxCell>
        <mxCell id="234" value="" style="strokeColor=#DEEDFF;fillColor=#D4E1FF" parent="1" vertex="1">
          <mxGeometry x="1506.5000000000016" y="380.00000000002206" width="20" height="520" as="geometry" />
        </mxCell>
        <mxCell id="235" value="" style="strokeColor=#DEEDFF" parent="1" vertex="1">
          <mxGeometry x="1526.5000000000016" y="380.00000000002206" width="20" height="520" as="geometry" />
        </mxCell>
        <mxCell id="236" value="" style="strokeColor=#DEEDFF" parent="1" vertex="1">
          <mxGeometry x="1546.5000000000016" y="380.00000000002206" width="20" height="520" as="geometry" />
        </mxCell>
        <mxCell id="237" value="" style="strokeColor=#DEEDFF" parent="1" vertex="1">
          <mxGeometry x="1566.5000000000016" y="380.00000000003297" width="20" height="520" as="geometry" />
        </mxCell>
        <mxCell id="238" value="" style="strokeColor=#DEEDFF" parent="1" vertex="1">
          <mxGeometry x="1586.5000000000016" y="380.0000000000366" width="20" height="520" as="geometry" />
        </mxCell>
        <mxCell id="239" value="" style="strokeColor=#DEEDFF" parent="1" vertex="1">
          <mxGeometry x="1606.5000000000016" y="380.0000000000366" width="20" height="520" as="geometry" />
        </mxCell>
        <mxCell id="240" value="" style="strokeColor=#DEEDFF;fillColor=#D4E1FF" parent="1" vertex="1">
          <mxGeometry x="1626.5000000000016" y="380.0000000000366" width="20" height="520" as="geometry" />
        </mxCell>
        <mxCell id="241" value="" style="strokeColor=#DEEDFF;fillColor=#D4E1FF" parent="1" vertex="1">
          <mxGeometry x="1646.5000000000018" y="380.0000000000366" width="20" height="520" as="geometry" />
        </mxCell>
        <mxCell id="2" value="Task Name" style="fillColor=#23445D;strokeColor=#FFFFFF;strokeWidth=2;fontColor=#FFFFFF;fontStyle=1" parent="1" vertex="1">
          <mxGeometry x="126.5" y="340" width="320" height="40" as="geometry" />
        </mxCell>
        <mxCell id="3" value="" style="fillColor=#23445D;strokeColor=#FFFFFF;strokeWidth=2;fontColor=#FFFFFF;fontStyle=1" parent="1" vertex="1">
          <mxGeometry x="86.5" y="340" width="40" height="40" as="geometry" />
        </mxCell>
        <mxCell id="4" value="3.1" style="fillColor=#23445D;strokeColor=#FFFFFF;strokeWidth=2;fontColor=#FFFFFF;fontStyle=1" parent="1" vertex="1">
          <mxGeometry x="686.5000000000018" y="340.0000000000001" width="140" height="20" as="geometry" />
        </mxCell>
        <mxCell id="5" value="M" style="fillColor=#23445D;strokeColor=#FFFFFF;strokeWidth=2;fontColor=#FFFFFF;fontStyle=1" parent="1" vertex="1">
          <mxGeometry x="686.5000000000018" y="360.0000000000001" width="20" height="20" as="geometry" />
        </mxCell>
        <mxCell id="6" value="T" style="fillColor=#23445D;strokeColor=#FFFFFF;strokeWidth=2;fontColor=#FFFFFF;fontStyle=1" parent="1" vertex="1">
          <mxGeometry x="706.5000000000018" y="360.0000000000001" width="20" height="20" as="geometry" />
        </mxCell>
        <mxCell id="7" value="W" style="fillColor=#23445D;strokeColor=#FFFFFF;strokeWidth=2;fontColor=#FFFFFF;fontStyle=1" parent="1" vertex="1">
          <mxGeometry x="726.5000000000018" y="360.0000000000001" width="20" height="20" as="geometry" />
        </mxCell>
        <mxCell id="8" value="T" style="fillColor=#23445D;strokeColor=#FFFFFF;strokeWidth=2;fontColor=#FFFFFF;fontStyle=1" parent="1" vertex="1">
          <mxGeometry x="746.5000000000018" y="360.0000000000001" width="20" height="20" as="geometry" />
        </mxCell>
        <mxCell id="9" value="F" style="fillColor=#23445D;strokeColor=#FFFFFF;strokeWidth=2;fontColor=#FFFFFF;fontStyle=1" parent="1" vertex="1">
          <mxGeometry x="766.5000000000016" y="360.0000000000001" width="20" height="20" as="geometry" />
        </mxCell>
        <mxCell id="10" value="S" style="fillColor=#23445D;strokeColor=#FFFFFF;strokeWidth=2;fontColor=#FFFFFF;fontStyle=1" parent="1" vertex="1">
          <mxGeometry x="786.5000000000016" y="360.0000000000001" width="20" height="20" as="geometry" />
        </mxCell>
        <mxCell id="11" value="S" style="fillColor=#23445D;strokeColor=#FFFFFF;strokeWidth=2;fontColor=#FFFFFF;fontStyle=1" parent="1" vertex="1">
          <mxGeometry x="806.5000000000016" y="360.0000000000001" width="20" height="20" as="geometry" />
        </mxCell>
        <mxCell id="12" value="Duration" style="fillColor=#23445D;strokeColor=#FFFFFF;strokeWidth=2;fontColor=#FFFFFF;fontStyle=1" parent="1" vertex="1">
          <mxGeometry x="446.50000000000176" y="340.00000000000006" width="80.00000000000006" height="40.00000000000001" as="geometry" />
        </mxCell>
        <mxCell id="13" value="Start" style="fillColor=#23445D;strokeColor=#FFFFFF;strokeWidth=2;fontColor=#FFFFFF;fontStyle=1" parent="1" vertex="1">
          <mxGeometry x="526.5000000000018" y="340.00000000000006" width="80.00000000000006" height="40.00000000000001" as="geometry" />
        </mxCell>
        <mxCell id="14" value="ETA" style="fillColor=#23445D;strokeColor=#FFFFFF;strokeWidth=2;fontColor=#FFFFFF;fontStyle=1" parent="1" vertex="1">
          <mxGeometry x="606.5000000000019" y="340.0000000000001" width="80.00000000000006" height="40.00000000000001" as="geometry" />
        </mxCell>
        <mxCell id="15" value="3.8" style="fillColor=#23445D;strokeColor=#FFFFFF;strokeWidth=2;fontColor=#FFFFFF;fontStyle=1" parent="1" vertex="1">
          <mxGeometry x="826.5000000000018" y="340.0000000000001" width="140" height="20" as="geometry" />
        </mxCell>
        <mxCell id="16" value="M" style="fillColor=#23445D;strokeColor=#FFFFFF;strokeWidth=2;fontColor=#FFFFFF;fontStyle=1" parent="1" vertex="1">
          <mxGeometry x="826.5000000000018" y="360.0000000000001" width="20" height="20" as="geometry" />
        </mxCell>
        <mxCell id="17" value="T" style="fillColor=#23445D;strokeColor=#FFFFFF;strokeWidth=2;fontColor=#FFFFFF;fontStyle=1" parent="1" vertex="1">
          <mxGeometry x="846.5000000000018" y="360.0000000000001" width="20" height="20" as="geometry" />
        </mxCell>
        <mxCell id="18" value="W" style="fillColor=#23445D;strokeColor=#FFFFFF;strokeWidth=2;fontColor=#FFFFFF;fontStyle=1" parent="1" vertex="1">
          <mxGeometry x="866.5000000000018" y="360.0000000000001" width="20" height="20" as="geometry" />
        </mxCell>
        <mxCell id="19" value="T" style="fillColor=#23445D;strokeColor=#FFFFFF;strokeWidth=2;fontColor=#FFFFFF;fontStyle=1" parent="1" vertex="1">
          <mxGeometry x="886.5000000000018" y="360.0000000000001" width="20" height="20" as="geometry" />
        </mxCell>
        <mxCell id="20" value="F" style="fillColor=#23445D;strokeColor=#FFFFFF;strokeWidth=2;fontColor=#FFFFFF;fontStyle=1" parent="1" vertex="1">
          <mxGeometry x="906.5000000000016" y="360.0000000000001" width="20" height="20" as="geometry" />
        </mxCell>
        <mxCell id="21" value="S" style="fillColor=#23445D;strokeColor=#FFFFFF;strokeWidth=2;fontColor=#FFFFFF;fontStyle=1" parent="1" vertex="1">
          <mxGeometry x="926.5000000000016" y="360.0000000000001" width="20" height="20" as="geometry" />
        </mxCell>
        <mxCell id="22" value="S" style="fillColor=#23445D;strokeColor=#FFFFFF;strokeWidth=2;fontColor=#FFFFFF;fontStyle=1" parent="1" vertex="1">
          <mxGeometry x="946.5000000000016" y="360.0000000000001" width="20" height="20" as="geometry" />
        </mxCell>
        <mxCell id="23" value="3.15" style="fillColor=#23445D;strokeColor=#FFFFFF;strokeWidth=2;fontColor=#FFFFFF;fontStyle=1" parent="1" vertex="1">
          <mxGeometry x="966.5000000000018" y="340.00000000000006" width="140" height="20" as="geometry" />
        </mxCell>
        <mxCell id="24" value="M" style="fillColor=#23445D;strokeColor=#FFFFFF;strokeWidth=2;fontColor=#FFFFFF;fontStyle=1" parent="1" vertex="1">
          <mxGeometry x="966.5000000000018" y="360.00000000000006" width="20" height="20" as="geometry" />
        </mxCell>
        <mxCell id="25" value="T" style="fillColor=#23445D;strokeColor=#FFFFFF;strokeWidth=2;fontColor=#FFFFFF;fontStyle=1" parent="1" vertex="1">
          <mxGeometry x="986.5000000000018" y="360.00000000000006" width="20" height="20" as="geometry" />
        </mxCell>
        <mxCell id="26" value="W" style="fillColor=#23445D;strokeColor=#FFFFFF;strokeWidth=2;fontColor=#FFFFFF;fontStyle=1" parent="1" vertex="1">
          <mxGeometry x="1006.5000000000018" y="360.00000000000006" width="20" height="20" as="geometry" />
        </mxCell>
        <mxCell id="27" value="T" style="fillColor=#23445D;strokeColor=#FFFFFF;strokeWidth=2;fontColor=#FFFFFF;fontStyle=1" parent="1" vertex="1">
          <mxGeometry x="1026.5000000000018" y="360.00000000000006" width="20" height="20" as="geometry" />
        </mxCell>
        <mxCell id="28" value="F" style="fillColor=#23445D;strokeColor=#FFFFFF;strokeWidth=2;fontColor=#FFFFFF;fontStyle=1" parent="1" vertex="1">
          <mxGeometry x="1046.5000000000016" y="360.00000000000006" width="20" height="20" as="geometry" />
        </mxCell>
        <mxCell id="29" value="S" style="fillColor=#23445D;strokeColor=#FFFFFF;strokeWidth=2;fontColor=#FFFFFF;fontStyle=1" parent="1" vertex="1">
          <mxGeometry x="1066.5000000000016" y="360.00000000000006" width="20" height="20" as="geometry" />
        </mxCell>
        <mxCell id="30" value="S" style="fillColor=#23445D;strokeColor=#FFFFFF;strokeWidth=2;fontColor=#FFFFFF;fontStyle=1" parent="1" vertex="1">
          <mxGeometry x="1086.5000000000016" y="360.00000000000006" width="20" height="20" as="geometry" />
        </mxCell>
        <mxCell id="31" value="3.22" style="fillColor=#23445D;strokeColor=#FFFFFF;strokeWidth=2;fontColor=#FFFFFF;fontStyle=1" parent="1" vertex="1">
          <mxGeometry x="1106.5000000000018" y="340.00000000000006" width="140" height="20" as="geometry" />
        </mxCell>
        <mxCell id="32" value="M" style="fillColor=#23445D;strokeColor=#FFFFFF;strokeWidth=2;fontColor=#FFFFFF;fontStyle=1" parent="1" vertex="1">
          <mxGeometry x="1106.5000000000018" y="360.00000000000006" width="20" height="20" as="geometry" />
        </mxCell>
        <mxCell id="33" value="T" style="fillColor=#23445D;strokeColor=#FFFFFF;strokeWidth=2;fontColor=#FFFFFF;fontStyle=1" parent="1" vertex="1">
          <mxGeometry x="1126.5000000000018" y="360.00000000000006" width="20" height="20" as="geometry" />
        </mxCell>
        <mxCell id="34" value="W" style="fillColor=#23445D;strokeColor=#FFFFFF;strokeWidth=2;fontColor=#FFFFFF;fontStyle=1" parent="1" vertex="1">
          <mxGeometry x="1146.5000000000018" y="360.00000000000006" width="20" height="20" as="geometry" />
        </mxCell>
        <mxCell id="35" value="T" style="fillColor=#23445D;strokeColor=#FFFFFF;strokeWidth=2;fontColor=#FFFFFF;fontStyle=1" parent="1" vertex="1">
          <mxGeometry x="1166.5000000000018" y="360.00000000000006" width="20" height="20" as="geometry" />
        </mxCell>
        <mxCell id="36" value="F" style="fillColor=#23445D;strokeColor=#FFFFFF;strokeWidth=2;fontColor=#FFFFFF;fontStyle=1" parent="1" vertex="1">
          <mxGeometry x="1186.5000000000016" y="360" width="20" height="20" as="geometry" />
        </mxCell>
        <mxCell id="37" value="S" style="fillColor=#23445D;strokeColor=#FFFFFF;strokeWidth=2;fontColor=#FFFFFF;fontStyle=1" parent="1" vertex="1">
          <mxGeometry x="1206.5000000000016" y="360" width="20" height="20" as="geometry" />
        </mxCell>
        <mxCell id="38" value="S" style="fillColor=#23445D;strokeColor=#FFFFFF;strokeWidth=2;fontColor=#FFFFFF;fontStyle=1" parent="1" vertex="1">
          <mxGeometry x="1226.5000000000016" y="360" width="20" height="20" as="geometry" />
        </mxCell>
        <mxCell id="39" value="3.29" style="fillColor=#23445D;strokeColor=#FFFFFF;strokeWidth=2;fontColor=#FFFFFF;fontStyle=1" parent="1" vertex="1">
          <mxGeometry x="1246.5000000000018" y="340.00000000000006" width="140" height="20" as="geometry" />
        </mxCell>
        <mxCell id="40" value="M" style="fillColor=#23445D;strokeColor=#FFFFFF;strokeWidth=2;fontColor=#FFFFFF;fontStyle=1" parent="1" vertex="1">
          <mxGeometry x="1246.5000000000018" y="360.00000000000006" width="20" height="20" as="geometry" />
        </mxCell>
        <mxCell id="41" value="T" style="fillColor=#23445D;strokeColor=#FFFFFF;strokeWidth=2;fontColor=#FFFFFF;fontStyle=1" parent="1" vertex="1">
          <mxGeometry x="1266.5000000000018" y="360.00000000000006" width="20" height="20" as="geometry" />
        </mxCell>
        <mxCell id="42" value="W" style="fillColor=#23445D;strokeColor=#FFFFFF;strokeWidth=2;fontColor=#FFFFFF;fontStyle=1" parent="1" vertex="1">
          <mxGeometry x="1286.5000000000018" y="360.00000000000006" width="20" height="20" as="geometry" />
        </mxCell>
        <mxCell id="43" value="T" style="fillColor=#23445D;strokeColor=#FFFFFF;strokeWidth=2;fontColor=#FFFFFF;fontStyle=1" parent="1" vertex="1">
          <mxGeometry x="1306.5000000000018" y="360.00000000000006" width="20" height="20" as="geometry" />
        </mxCell>
        <mxCell id="44" value="F" style="fillColor=#23445D;strokeColor=#FFFFFF;strokeWidth=2;fontColor=#FFFFFF;fontStyle=1" parent="1" vertex="1">
          <mxGeometry x="1326.5000000000016" y="360" width="20" height="20" as="geometry" />
        </mxCell>
        <mxCell id="45" value="S" style="fillColor=#23445D;strokeColor=#FFFFFF;strokeWidth=2;fontColor=#FFFFFF;fontStyle=1" parent="1" vertex="1">
          <mxGeometry x="1346.5000000000016" y="360" width="20" height="20" as="geometry" />
        </mxCell>
        <mxCell id="46" value="S" style="fillColor=#23445D;strokeColor=#FFFFFF;strokeWidth=2;fontColor=#FFFFFF;fontStyle=1" parent="1" vertex="1">
          <mxGeometry x="1366.5000000000016" y="360" width="20" height="20" as="geometry" />
        </mxCell>
        <mxCell id="47" value="4.5" style="fillColor=#23445D;strokeColor=#FFFFFF;strokeWidth=2;fontColor=#FFFFFF;fontStyle=1" parent="1" vertex="1">
          <mxGeometry x="1386.5000000000018" y="340" width="140" height="20" as="geometry" />
        </mxCell>
        <mxCell id="48" value="M" style="fillColor=#23445D;strokeColor=#FFFFFF;strokeWidth=2;fontColor=#FFFFFF;fontStyle=1" parent="1" vertex="1">
          <mxGeometry x="1386.5000000000018" y="360" width="20" height="20" as="geometry" />
        </mxCell>
        <mxCell id="49" value="T" style="fillColor=#23445D;strokeColor=#FFFFFF;strokeWidth=2;fontColor=#FFFFFF;fontStyle=1" parent="1" vertex="1">
          <mxGeometry x="1406.5000000000018" y="360" width="20" height="20" as="geometry" />
        </mxCell>
        <mxCell id="50" value="W" style="fillColor=#23445D;strokeColor=#FFFFFF;strokeWidth=2;fontColor=#FFFFFF;fontStyle=1" parent="1" vertex="1">
          <mxGeometry x="1426.5000000000018" y="360" width="20" height="20" as="geometry" />
        </mxCell>
        <mxCell id="51" value="T" style="fillColor=#23445D;strokeColor=#FFFFFF;strokeWidth=2;fontColor=#FFFFFF;fontStyle=1" parent="1" vertex="1">
          <mxGeometry x="1446.5000000000018" y="360" width="20" height="20" as="geometry" />
        </mxCell>
        <mxCell id="52" value="F" style="fillColor=#23445D;strokeColor=#FFFFFF;strokeWidth=2;fontColor=#FFFFFF;fontStyle=1" parent="1" vertex="1">
          <mxGeometry x="1466.5000000000016" y="360" width="20" height="20" as="geometry" />
        </mxCell>
        <mxCell id="53" value="S" style="fillColor=#23445D;strokeColor=#FFFFFF;strokeWidth=2;fontColor=#FFFFFF;fontStyle=1" parent="1" vertex="1">
          <mxGeometry x="1486.5000000000016" y="360" width="20" height="20" as="geometry" />
        </mxCell>
        <mxCell id="54" value="S" style="fillColor=#23445D;strokeColor=#FFFFFF;strokeWidth=2;fontColor=#FFFFFF;fontStyle=1" parent="1" vertex="1">
          <mxGeometry x="1506.5000000000016" y="360" width="20" height="20" as="geometry" />
        </mxCell>
        <mxCell id="55" value="6.14" style="fillColor=#23445D;strokeColor=#FFFFFF;strokeWidth=2;fontColor=#FFFFFF;fontStyle=1" parent="1" vertex="1">
          <mxGeometry x="1526.5000000000018" y="340.0000000000001" width="140" height="20" as="geometry" />
        </mxCell>
        <mxCell id="56" value="M" style="fillColor=#23445D;strokeColor=#FFFFFF;strokeWidth=2;fontColor=#FFFFFF;fontStyle=1" parent="1" vertex="1">
          <mxGeometry x="1526.5000000000018" y="360.0000000000001" width="20" height="20" as="geometry" />
        </mxCell>
        <mxCell id="57" value="T" style="fillColor=#23445D;strokeColor=#FFFFFF;strokeWidth=2;fontColor=#FFFFFF;fontStyle=1" parent="1" vertex="1">
          <mxGeometry x="1546.5000000000018" y="360.0000000000001" width="20" height="20" as="geometry" />
        </mxCell>
        <mxCell id="58" value="W" style="fillColor=#23445D;strokeColor=#FFFFFF;strokeWidth=2;fontColor=#FFFFFF;fontStyle=1" parent="1" vertex="1">
          <mxGeometry x="1566.5000000000018" y="360.0000000000001" width="20" height="20" as="geometry" />
        </mxCell>
        <mxCell id="59" value="T" style="fillColor=#23445D;strokeColor=#FFFFFF;strokeWidth=2;fontColor=#FFFFFF;fontStyle=1" parent="1" vertex="1">
          <mxGeometry x="1586.5000000000018" y="360.0000000000001" width="20" height="20" as="geometry" />
        </mxCell>
        <mxCell id="60" value="F" style="fillColor=#23445D;strokeColor=#FFFFFF;strokeWidth=2;fontColor=#FFFFFF;fontStyle=1" parent="1" vertex="1">
          <mxGeometry x="1606.5000000000016" y="360.0000000000001" width="20" height="20" as="geometry" />
        </mxCell>
        <mxCell id="61" value="S" style="fillColor=#23445D;strokeColor=#FFFFFF;strokeWidth=2;fontColor=#FFFFFF;fontStyle=1" parent="1" vertex="1">
          <mxGeometry x="1626.5000000000016" y="360.0000000000001" width="20" height="20" as="geometry" />
        </mxCell>
        <mxCell id="62" value="S" style="fillColor=#23445D;strokeColor=#FFFFFF;strokeWidth=2;fontColor=#FFFFFF;fontStyle=1" parent="1" vertex="1">
          <mxGeometry x="1646.5000000000016" y="360.0000000000001" width="20" height="20" as="geometry" />
        </mxCell>
        <mxCell id="4FHNyfsBTji11Bc5UO98-298" value="" style="strokeColor=#DEEDFF" parent="1" vertex="1">
          <mxGeometry x="1666.5000000000016" y="380.00000000002206" width="24" height="520" as="geometry" />
        </mxCell>
        <mxCell id="4FHNyfsBTji11Bc5UO98-299" value="" style="strokeColor=#DEEDFF" parent="1" vertex="1">
          <mxGeometry x="1686.5000000000016" y="380.00000000002206" width="24" height="520" as="geometry" />
        </mxCell>
        <mxCell id="4FHNyfsBTji11Bc5UO98-300" value="" style="strokeColor=#DEEDFF" parent="1" vertex="1">
          <mxGeometry x="1706.5000000000016" y="380.00000000003297" width="24" height="520" as="geometry" />
        </mxCell>
        <mxCell id="4FHNyfsBTji11Bc5UO98-301" value="" style="strokeColor=#DEEDFF" parent="1" vertex="1">
          <mxGeometry x="1726.5000000000016" y="380.0000000000366" width="24" height="520" as="geometry" />
        </mxCell>
        <mxCell id="4FHNyfsBTji11Bc5UO98-302" value="" style="strokeColor=#DEEDFF" parent="1" vertex="1">
          <mxGeometry x="1746.5000000000016" y="380.0000000000366" width="24" height="520" as="geometry" />
        </mxCell>
        <mxCell id="4FHNyfsBTji11Bc5UO98-303" value="" style="strokeColor=#DEEDFF;fillColor=#D4E1FF" parent="1" vertex="1">
          <mxGeometry x="1766.5000000000016" y="380.0000000000366" width="24" height="520" as="geometry" />
        </mxCell>
        <mxCell id="4FHNyfsBTji11Bc5UO98-304" value="" style="strokeColor=#DEEDFF;fillColor=#D4E1FF" parent="1" vertex="1">
          <mxGeometry x="1786.5000000000018" y="380.0000000000366" width="24" height="520" as="geometry" />
        </mxCell>
        <mxCell id="4FHNyfsBTji11Bc5UO98-305" value="6.21" style="fillColor=#23445D;strokeColor=#FFFFFF;strokeWidth=2;fontColor=#FFFFFF;fontStyle=1" parent="1" vertex="1">
          <mxGeometry x="1666.5000000000018" y="340.0000000000001" width="144" height="20" as="geometry" />
        </mxCell>
        <mxCell id="4FHNyfsBTji11Bc5UO98-306" value="M" style="fillColor=#23445D;strokeColor=#FFFFFF;strokeWidth=2;fontColor=#FFFFFF;fontStyle=1" parent="1" vertex="1">
          <mxGeometry x="1666.5000000000018" y="360.0000000000001" width="24" height="20" as="geometry" />
        </mxCell>
        <mxCell id="4FHNyfsBTji11Bc5UO98-307" value="T" style="fillColor=#23445D;strokeColor=#FFFFFF;strokeWidth=2;fontColor=#FFFFFF;fontStyle=1" parent="1" vertex="1">
          <mxGeometry x="1686.5000000000018" y="360.0000000000001" width="24" height="20" as="geometry" />
        </mxCell>
        <mxCell id="4FHNyfsBTji11Bc5UO98-308" value="W" style="fillColor=#23445D;strokeColor=#FFFFFF;strokeWidth=2;fontColor=#FFFFFF;fontStyle=1" parent="1" vertex="1">
          <mxGeometry x="1706.5000000000018" y="360.0000000000001" width="24" height="20" as="geometry" />
        </mxCell>
        <mxCell id="4FHNyfsBTji11Bc5UO98-309" value="T" style="fillColor=#23445D;strokeColor=#FFFFFF;strokeWidth=2;fontColor=#FFFFFF;fontStyle=1" parent="1" vertex="1">
          <mxGeometry x="1726.5000000000018" y="360.0000000000001" width="24" height="20" as="geometry" />
        </mxCell>
        <mxCell id="4FHNyfsBTji11Bc5UO98-310" value="F" style="fillColor=#23445D;strokeColor=#FFFFFF;strokeWidth=2;fontColor=#FFFFFF;fontStyle=1" parent="1" vertex="1">
          <mxGeometry x="1746.5000000000016" y="360.0000000000001" width="24" height="20" as="geometry" />
        </mxCell>
        <mxCell id="4FHNyfsBTji11Bc5UO98-311" value="S" style="fillColor=#23445D;strokeColor=#FFFFFF;strokeWidth=2;fontColor=#FFFFFF;fontStyle=1" parent="1" vertex="1">
          <mxGeometry x="1766.5000000000016" y="360.0000000000001" width="24" height="20" as="geometry" />
        </mxCell>
        <mxCell id="4FHNyfsBTji11Bc5UO98-312" value="S" style="fillColor=#23445D;strokeColor=#FFFFFF;strokeWidth=2;fontColor=#FFFFFF;fontStyle=1" parent="1" vertex="1">
          <mxGeometry x="1786.5000000000016" y="360.0000000000001" width="24" height="20" as="geometry" />
        </mxCell>
        <mxCell id="4FHNyfsBTji11Bc5UO98-317" value="" style="strokeColor=#DEEDFF" parent="1" vertex="1">
          <mxGeometry x="1810.500000000002" y="380.00000000002206" width="20" height="520" as="geometry" />
        </mxCell>
        <mxCell id="4FHNyfsBTji11Bc5UO98-318" value="" style="strokeColor=#DEEDFF" parent="1" vertex="1">
          <mxGeometry x="1830.500000000002" y="380.0000000000257" width="20" height="520" as="geometry" />
        </mxCell>
        <mxCell id="4FHNyfsBTji11Bc5UO98-319" value="" style="strokeColor=#DEEDFF" parent="1" vertex="1">
          <mxGeometry x="1850.500000000002" y="380.0000000000257" width="20" height="520" as="geometry" />
        </mxCell>
        <mxCell id="4FHNyfsBTji11Bc5UO98-320" value="" style="strokeColor=#DEEDFF" parent="1" vertex="1">
          <mxGeometry x="1870.500000000002" y="380.0000000000257" width="20" height="520" as="geometry" />
        </mxCell>
        <mxCell id="4FHNyfsBTji11Bc5UO98-321" value="" style="strokeColor=#DEEDFF" parent="1" vertex="1">
          <mxGeometry x="1890.5000000000016" y="380.0000000000257" width="20" height="520" as="geometry" />
        </mxCell>
        <mxCell id="4FHNyfsBTji11Bc5UO98-322" value="" style="strokeColor=#DEEDFF;fillColor=#D4E1FF" parent="1" vertex="1">
          <mxGeometry x="1910.5000000000016" y="380.00000000002933" width="20" height="520" as="geometry" />
        </mxCell>
        <mxCell id="4FHNyfsBTji11Bc5UO98-323" value="" style="strokeColor=#DEEDFF;fillColor=#D4E1FF" parent="1" vertex="1">
          <mxGeometry x="1930.5000000000016" y="380.00000000002933" width="20" height="520" as="geometry" />
        </mxCell>
        <mxCell id="4FHNyfsBTji11Bc5UO98-324" value="" style="strokeColor=#DEEDFF" parent="1" vertex="1">
          <mxGeometry x="1950.5000000000016" y="380.00000000002933" width="20" height="520" as="geometry" />
        </mxCell>
        <mxCell id="4FHNyfsBTji11Bc5UO98-325" value="" style="strokeColor=#DEEDFF" parent="1" vertex="1">
          <mxGeometry x="1970.5000000000016" y="380.00000000002933" width="20" height="520" as="geometry" />
        </mxCell>
        <mxCell id="4FHNyfsBTji11Bc5UO98-326" value="" style="strokeColor=#DEEDFF" parent="1" vertex="1">
          <mxGeometry x="1990.5000000000016" y="380.00000000003297" width="20" height="520" as="geometry" />
        </mxCell>
        <mxCell id="4FHNyfsBTji11Bc5UO98-327" value="" style="strokeColor=#DEEDFF" parent="1" vertex="1">
          <mxGeometry x="2010.5000000000016" y="380.00000000003297" width="20" height="520" as="geometry" />
        </mxCell>
        <mxCell id="4FHNyfsBTji11Bc5UO98-328" value="" style="strokeColor=#DEEDFF" parent="1" vertex="1">
          <mxGeometry x="2030.5000000000016" y="380.00000000003297" width="20" height="520" as="geometry" />
        </mxCell>
        <mxCell id="4FHNyfsBTji11Bc5UO98-329" value="" style="strokeColor=#DEEDFF;fillColor=#D4E1FF" parent="1" vertex="1">
          <mxGeometry x="2050.500000000002" y="380.0000000000184" width="20" height="520" as="geometry" />
        </mxCell>
        <mxCell id="4FHNyfsBTji11Bc5UO98-330" value="" style="strokeColor=#DEEDFF;fillColor=#D4E1FF" parent="1" vertex="1">
          <mxGeometry x="2070.500000000002" y="380.00000000002206" width="20" height="520" as="geometry" />
        </mxCell>
        <mxCell id="4FHNyfsBTji11Bc5UO98-338" value="6.28" style="fillColor=#23445D;strokeColor=#FFFFFF;strokeWidth=2;fontColor=#FFFFFF;fontStyle=1" parent="1" vertex="1">
          <mxGeometry x="1810.5000000000018" y="340.00000000000006" width="140" height="20" as="geometry" />
        </mxCell>
        <mxCell id="4FHNyfsBTji11Bc5UO98-339" value="M" style="fillColor=#23445D;strokeColor=#FFFFFF;strokeWidth=2;fontColor=#FFFFFF;fontStyle=1" parent="1" vertex="1">
          <mxGeometry x="1810.5000000000018" y="360.00000000000006" width="20" height="20" as="geometry" />
        </mxCell>
        <mxCell id="4FHNyfsBTji11Bc5UO98-340" value="T" style="fillColor=#23445D;strokeColor=#FFFFFF;strokeWidth=2;fontColor=#FFFFFF;fontStyle=1" parent="1" vertex="1">
          <mxGeometry x="1830.5000000000018" y="360.00000000000006" width="20" height="20" as="geometry" />
        </mxCell>
        <mxCell id="4FHNyfsBTji11Bc5UO98-341" value="W" style="fillColor=#23445D;strokeColor=#FFFFFF;strokeWidth=2;fontColor=#FFFFFF;fontStyle=1" parent="1" vertex="1">
          <mxGeometry x="1850.5000000000018" y="360.00000000000006" width="20" height="20" as="geometry" />
        </mxCell>
        <mxCell id="4FHNyfsBTji11Bc5UO98-342" value="T" style="fillColor=#23445D;strokeColor=#FFFFFF;strokeWidth=2;fontColor=#FFFFFF;fontStyle=1" parent="1" vertex="1">
          <mxGeometry x="1870.5000000000018" y="360.00000000000006" width="20" height="20" as="geometry" />
        </mxCell>
        <mxCell id="4FHNyfsBTji11Bc5UO98-343" value="F" style="fillColor=#23445D;strokeColor=#FFFFFF;strokeWidth=2;fontColor=#FFFFFF;fontStyle=1" parent="1" vertex="1">
          <mxGeometry x="1890.5000000000016" y="360" width="20" height="20" as="geometry" />
        </mxCell>
        <mxCell id="4FHNyfsBTji11Bc5UO98-344" value="S" style="fillColor=#23445D;strokeColor=#FFFFFF;strokeWidth=2;fontColor=#FFFFFF;fontStyle=1" parent="1" vertex="1">
          <mxGeometry x="1910.5000000000016" y="360" width="20" height="20" as="geometry" />
        </mxCell>
        <mxCell id="4FHNyfsBTji11Bc5UO98-345" value="S" style="fillColor=#23445D;strokeColor=#FFFFFF;strokeWidth=2;fontColor=#FFFFFF;fontStyle=1" parent="1" vertex="1">
          <mxGeometry x="1930.5000000000016" y="360" width="20" height="20" as="geometry" />
        </mxCell>
        <mxCell id="4FHNyfsBTji11Bc5UO98-346" value="7.5" style="fillColor=#23445D;strokeColor=#FFFFFF;strokeWidth=2;fontColor=#FFFFFF;fontStyle=1" parent="1" vertex="1">
          <mxGeometry x="1950.5000000000018" y="340" width="140" height="20" as="geometry" />
        </mxCell>
        <mxCell id="4FHNyfsBTji11Bc5UO98-347" value="M" style="fillColor=#23445D;strokeColor=#FFFFFF;strokeWidth=2;fontColor=#FFFFFF;fontStyle=1" parent="1" vertex="1">
          <mxGeometry x="1950.5000000000018" y="360" width="20" height="20" as="geometry" />
        </mxCell>
        <mxCell id="4FHNyfsBTji11Bc5UO98-348" value="T" style="fillColor=#23445D;strokeColor=#FFFFFF;strokeWidth=2;fontColor=#FFFFFF;fontStyle=1" parent="1" vertex="1">
          <mxGeometry x="1970.5000000000018" y="360" width="20" height="20" as="geometry" />
        </mxCell>
        <mxCell id="4FHNyfsBTji11Bc5UO98-349" value="W" style="fillColor=#23445D;strokeColor=#FFFFFF;strokeWidth=2;fontColor=#FFFFFF;fontStyle=1" parent="1" vertex="1">
          <mxGeometry x="1990.5000000000018" y="360" width="20" height="20" as="geometry" />
        </mxCell>
        <mxCell id="4FHNyfsBTji11Bc5UO98-350" value="T" style="fillColor=#23445D;strokeColor=#FFFFFF;strokeWidth=2;fontColor=#FFFFFF;fontStyle=1" parent="1" vertex="1">
          <mxGeometry x="2010.5000000000018" y="360" width="20" height="20" as="geometry" />
        </mxCell>
        <mxCell id="4FHNyfsBTji11Bc5UO98-351" value="F" style="fillColor=#23445D;strokeColor=#FFFFFF;strokeWidth=2;fontColor=#FFFFFF;fontStyle=1" parent="1" vertex="1">
          <mxGeometry x="2030.5000000000016" y="360" width="20" height="20" as="geometry" />
        </mxCell>
        <mxCell id="4FHNyfsBTji11Bc5UO98-352" value="S" style="fillColor=#23445D;strokeColor=#FFFFFF;strokeWidth=2;fontColor=#FFFFFF;fontStyle=1" parent="1" vertex="1">
          <mxGeometry x="2050.500000000002" y="360" width="20" height="20" as="geometry" />
        </mxCell>
        <mxCell id="4FHNyfsBTji11Bc5UO98-353" value="S" style="fillColor=#23445D;strokeColor=#FFFFFF;strokeWidth=2;fontColor=#FFFFFF;fontStyle=1" parent="1" vertex="1">
          <mxGeometry x="2070.500000000002" y="360" width="20" height="20" as="geometry" />
        </mxCell>
        <mxCell id="4FHNyfsBTji11Bc5UO98-434" value="1" style="strokeColor=#DEEDFF;fillColor=#CCE5FF;" parent="1" vertex="1">
          <mxGeometry x="86.5" y="380" width="40" height="20" as="geometry" />
        </mxCell>
        <mxCell id="4FHNyfsBTji11Bc5UO98-436" value="13 days" style="strokeColor=#DEEDFF;fillColor=#CCE5FF;" parent="1" vertex="1">
          <mxGeometry x="446.50000000000176" y="380" width="80.00000000000028" height="20" as="geometry" />
        </mxCell>
        <mxCell id="4FHNyfsBTji11Bc5UO98-437" value="3.3" style="strokeColor=#DEEDFF;fillColor=#CCE5FF;" parent="1" vertex="1">
          <mxGeometry x="526.500000000002" y="380" width="80.00000000000028" height="20" as="geometry" />
        </mxCell>
        <mxCell id="4FHNyfsBTji11Bc5UO98-438" value="3.19" style="strokeColor=#DEEDFF;fillColor=#CCE5FF;" parent="1" vertex="1">
          <mxGeometry x="606.5000000000016" y="380.0000000000002" width="80.00000000000028" height="20" as="geometry" />
        </mxCell>
        <mxCell id="4FHNyfsBTji11Bc5UO98-439" value="2" style="strokeColor=#DEEDFF;fillColor=#FFFFFF;" parent="1" vertex="1">
          <mxGeometry x="86.50000000000026" y="399.9999999999999" width="40" height="20" as="geometry" />
        </mxCell>
        <mxCell id="4FHNyfsBTji11Bc5UO98-440" value="Bug修复" style="align=left;strokeColor=#DEEDFF;fillColor=#FFFFFF;" parent="1" vertex="1">
          <mxGeometry x="126.50000000000026" y="399.9999999999999" width="319.9999999999998" height="20" as="geometry" />
        </mxCell>
        <mxCell id="4FHNyfsBTji11Bc5UO98-441" value="11 days" style="strokeColor=#DEEDFF;fillColor=#FFFFFF;" parent="1" vertex="1">
          <mxGeometry x="446.500000000002" y="399.99999999999983" width="80.00000000000028" height="20" as="geometry" />
        </mxCell>
        <mxCell id="4FHNyfsBTji11Bc5UO98-442" value="3.9" style="strokeColor=#DEEDFF;fillColor=#FFFFFF;" parent="1" vertex="1">
          <mxGeometry x="526.5000000000023" y="399.99999999999983" width="80.00000000000028" height="20" as="geometry" />
        </mxCell>
        <mxCell id="4FHNyfsBTji11Bc5UO98-443" value="3.22" style="strokeColor=#DEEDFF;fillColor=#FFFFFF;" parent="1" vertex="1">
          <mxGeometry x="606.5000000000018" y="400.0000000000001" width="80.00000000000028" height="20" as="geometry" />
        </mxCell>
        <mxCell id="4FHNyfsBTji11Bc5UO98-444" value="3" style="strokeColor=#DEEDFF" parent="1" vertex="1">
          <mxGeometry x="86.50000000000027" y="419.9999999999998" width="40" height="20" as="geometry" />
        </mxCell>
        <mxCell id="4FHNyfsBTji11Bc5UO98-445" value="二轮测试" style="align=left;strokeColor=#DEEDFF" parent="1" vertex="1">
          <mxGeometry x="126.50000000000028" y="419.9999999999998" width="319.9999999999997" height="20.000000000000014" as="geometry" />
        </mxCell>
        <mxCell id="4FHNyfsBTji11Bc5UO98-446" value="5 days" style="strokeColor=#DEEDFF" parent="1" vertex="1">
          <mxGeometry x="446.500000000002" y="419.9999999999998" width="80.00000000000028" height="20" as="geometry" />
        </mxCell>
        <mxCell id="4FHNyfsBTji11Bc5UO98-447" value="3.23" style="strokeColor=#DEEDFF" parent="1" vertex="1">
          <mxGeometry x="526.5000000000023" y="419.9999999999998" width="80.00000000000028" height="20" as="geometry" />
        </mxCell>
        <mxCell id="4FHNyfsBTji11Bc5UO98-448" value="3.30" style="strokeColor=#DEEDFF" parent="1" vertex="1">
          <mxGeometry x="606.5000000000018" y="420" width="80.00000000000028" height="20" as="geometry" />
        </mxCell>
        <mxCell id="4FHNyfsBTji11Bc5UO98-449" value="4" style="strokeColor=#DEEDFF" parent="1" vertex="1">
          <mxGeometry x="86.5" y="440.0000000000002" width="40" height="20" as="geometry" />
        </mxCell>
        <mxCell id="4FHNyfsBTji11Bc5UO98-450" value="Bug修复" style="align=left;strokeColor=#DEEDFF" parent="1" vertex="1">
          <mxGeometry x="126.5" y="440.0000000000002" width="320" height="20" as="geometry" />
        </mxCell>
        <mxCell id="4FHNyfsBTji11Bc5UO98-451" value="5 days" style="strokeColor=#DEEDFF" parent="1" vertex="1">
          <mxGeometry x="446.5000000000017" y="440.0000000000001" width="80.00000000000028" height="20" as="geometry" />
        </mxCell>
        <mxCell id="4FHNyfsBTji11Bc5UO98-452" value="3.26" style="strokeColor=#DEEDFF" parent="1" vertex="1">
          <mxGeometry x="526.500000000002" y="440.0000000000001" width="80.00000000000028" height="20" as="geometry" />
        </mxCell>
        <mxCell id="4FHNyfsBTji11Bc5UO98-453" value="4.1" style="strokeColor=#DEEDFF" parent="1" vertex="1">
          <mxGeometry x="606.5000000000015" y="440.00000000000045" width="80.00000000000028" height="20" as="geometry" />
        </mxCell>
        <mxCell id="4FHNyfsBTji11Bc5UO98-454" value="5" style="strokeColor=#DEEDFF;fillColor=#FFFFFF;" parent="1" vertex="1">
          <mxGeometry x="86.5" y="460" width="40" height="20" as="geometry" />
        </mxCell>
        <mxCell id="4FHNyfsBTji11Bc5UO98-455" value="债券&amp;NCD用户验收&amp;优化" style="align=left;strokeColor=#DEEDFF;fillColor=#FFFFFF;" parent="1" vertex="1">
          <mxGeometry x="126.5" y="460" width="320" height="20" as="geometry" />
        </mxCell>
        <mxCell id="4FHNyfsBTji11Bc5UO98-456" value="8 days" style="strokeColor=#DEEDFF;fillColor=#FFFFFF;" parent="1" vertex="1">
          <mxGeometry x="446.50000000000176" y="460" width="80.00000000000028" height="20" as="geometry" />
        </mxCell>
        <mxCell id="4FHNyfsBTji11Bc5UO98-457" value="3.24" style="strokeColor=#DEEDFF;fillColor=#FFFFFF;" parent="1" vertex="1">
          <mxGeometry x="526.500000000002" y="460" width="80.00000000000028" height="20" as="geometry" />
        </mxCell>
        <mxCell id="4FHNyfsBTji11Bc5UO98-458" value="4.2" style="strokeColor=#DEEDFF;fillColor=#FFFFFF;" parent="1" vertex="1">
          <mxGeometry x="606.5000000000016" y="460.0000000000002" width="80.00000000000028" height="20" as="geometry" />
        </mxCell>
        <mxCell id="4FHNyfsBTji11Bc5UO98-459" value="一轮测试" style="shape=mxgraph.flowchart.process;fillColor=#6a00ff;strokeColor=#3700CC;strokeWidth=2;opacity=50;fontColor=#ffffff;" parent="1" vertex="1">
          <mxGeometry x="726.5" y="380" width="339" height="20" as="geometry" />
        </mxCell>
        <mxCell id="4FHNyfsBTji11Bc5UO98-460" value="Bug修复" style="shape=mxgraph.flowchart.process;fillColor=#d5e8d4;strokeColor=#82b366;strokeWidth=2;opacity=50" parent="1" vertex="1">
          <mxGeometry x="846.5" y="400" width="300" height="20" as="geometry" />
        </mxCell>
        <mxCell id="4FHNyfsBTji11Bc5UO98-461" value="二轮测试" style="shape=mxgraph.flowchart.process;fillColor=#6a00ff;strokeColor=#3700CC;strokeWidth=2;opacity=50;fontColor=#ffffff;" parent="1" vertex="1">
          <mxGeometry x="1146.5" y="420" width="140" height="20" as="geometry" />
        </mxCell>
        <mxCell id="4FHNyfsBTji11Bc5UO98-462" value="Bug修复" style="shape=mxgraph.flowchart.process;fillColor=#d5e8d4;strokeColor=#82b366;strokeWidth=2;opacity=50" parent="1" vertex="1">
          <mxGeometry x="1187" y="440" width="140" height="20" as="geometry" />
        </mxCell>
        <mxCell id="4FHNyfsBTji11Bc5UO98-463" value="用户验收&amp;优化" style="shape=mxgraph.flowchart.process;fillColor=#AE4132;strokeColor=none;strokeWidth=2;opacity=50" parent="1" vertex="1">
          <mxGeometry x="1146.5" y="460" width="201" height="20" as="geometry" />
        </mxCell>
        <mxCell id="4FHNyfsBTji11Bc5UO98-464" value="6" style="strokeColor=#B20000;fillColor=#e51400;fontColor=#ffffff;" parent="1" vertex="1">
          <mxGeometry x="86.5" y="480" width="40" height="20" as="geometry" />
        </mxCell>
        <mxCell id="4FHNyfsBTji11Bc5UO98-465" value="债券&amp;NCD上线" style="align=left;strokeColor=#B20000;fillColor=#e51400;fontColor=#ffffff;" parent="1" vertex="1">
          <mxGeometry x="126.5" y="480" width="320" height="20" as="geometry" />
        </mxCell>
        <mxCell id="4FHNyfsBTji11Bc5UO98-466" value="4 days" style="strokeColor=#B20000;fillColor=#e51400;fontColor=#ffffff;" parent="1" vertex="1">
          <mxGeometry x="446.50000000000176" y="480" width="80.00000000000028" height="20" as="geometry" />
        </mxCell>
        <mxCell id="4FHNyfsBTji11Bc5UO98-467" value="4.6" style="strokeColor=#B20000;fillColor=#e51400;fontColor=#ffffff;" parent="1" vertex="1">
          <mxGeometry x="526.500000000002" y="480" width="80.00000000000028" height="20" as="geometry" />
        </mxCell>
        <mxCell id="4FHNyfsBTji11Bc5UO98-468" value="4.9" style="strokeColor=#B20000;fillColor=#e51400;fontColor=#ffffff;" parent="1" vertex="1">
          <mxGeometry x="606.5000000000016" y="480.0000000000002" width="80.00000000000028" height="20" as="geometry" />
        </mxCell>
        <mxCell id="4FHNyfsBTji11Bc5UO98-469" value="上线准备、上线" style="shape=mxgraph.flowchart.process;fillColor=#AE4132;strokeColor=none;strokeWidth=2;opacity=50" parent="1" vertex="1">
          <mxGeometry x="1407" y="480" width="79" height="20" as="geometry" />
        </mxCell>
        <mxCell id="4FHNyfsBTji11Bc5UO98-473" value="债券&amp;NCD一轮测试" style="align=left;strokeColor=#DEEDFF;fillColor=#CCE5FF;" parent="1" vertex="1">
          <mxGeometry x="126.5" y="380" width="320" height="20" as="geometry" />
        </mxCell>
        <mxCell id="jme6J1a--F_uehQXRode-273" value="IRS集成测试" style="shape=mxgraph.flowchart.process;fillColor=#d5e8d4;strokeColor=#82b366;strokeWidth=2;opacity=50;" parent="1" vertex="1">
          <mxGeometry x="1547.5" y="540" width="179" height="20" as="geometry" />
        </mxCell>
        <mxCell id="kH3QpJOYr6xJS1yelhLQ-272" value="IRS设计" style="shape=mxgraph.flowchart.process;fillColor=#d5e8d4;strokeColor=#82b366;strokeWidth=2;opacity=50;" parent="1" vertex="1">
          <mxGeometry x="726.5" y="500" width="480" height="20" as="geometry" />
        </mxCell>
        <mxCell id="kH3QpJOYr6xJS1yelhLQ-273" value="" style="strokeColor=#DEEDFF" parent="1" vertex="1">
          <mxGeometry x="2090.500000000002" y="380.00000000002933" width="20" height="520" as="geometry" />
        </mxCell>
        <mxCell id="kH3QpJOYr6xJS1yelhLQ-274" value="" style="strokeColor=#DEEDFF" parent="1" vertex="1">
          <mxGeometry x="2110.500000000002" y="380.00000000002933" width="20" height="520" as="geometry" />
        </mxCell>
        <mxCell id="kH3QpJOYr6xJS1yelhLQ-275" value="" style="strokeColor=#DEEDFF" parent="1" vertex="1">
          <mxGeometry x="2130.500000000002" y="380.00000000003297" width="20" height="520" as="geometry" />
        </mxCell>
        <mxCell id="kH3QpJOYr6xJS1yelhLQ-276" value="" style="strokeColor=#DEEDFF" parent="1" vertex="1">
          <mxGeometry x="2150.500000000002" y="380.00000000003297" width="20" height="520" as="geometry" />
        </mxCell>
        <mxCell id="kH3QpJOYr6xJS1yelhLQ-277" value="" style="strokeColor=#DEEDFF" parent="1" vertex="1">
          <mxGeometry x="2170.500000000002" y="380.00000000003297" width="20" height="520" as="geometry" />
        </mxCell>
        <mxCell id="kH3QpJOYr6xJS1yelhLQ-278" value="" style="strokeColor=#DEEDFF;fillColor=#D4E1FF" parent="1" vertex="1">
          <mxGeometry x="2190.500000000002" y="380.0000000000184" width="20" height="520" as="geometry" />
        </mxCell>
        <mxCell id="kH3QpJOYr6xJS1yelhLQ-279" value="" style="strokeColor=#DEEDFF;fillColor=#D4E1FF" parent="1" vertex="1">
          <mxGeometry x="2210.500000000002" y="380.00000000002206" width="20" height="520" as="geometry" />
        </mxCell>
        <mxCell id="kH3QpJOYr6xJS1yelhLQ-280" value="7.12" style="fillColor=#23445D;strokeColor=#FFFFFF;strokeWidth=2;fontColor=#FFFFFF;fontStyle=1" parent="1" vertex="1">
          <mxGeometry x="2090.500000000002" y="340" width="140" height="20" as="geometry" />
        </mxCell>
        <mxCell id="kH3QpJOYr6xJS1yelhLQ-281" value="M" style="fillColor=#23445D;strokeColor=#FFFFFF;strokeWidth=2;fontColor=#FFFFFF;fontStyle=1" parent="1" vertex="1">
          <mxGeometry x="2090.500000000002" y="360" width="20" height="20" as="geometry" />
        </mxCell>
        <mxCell id="kH3QpJOYr6xJS1yelhLQ-282" value="T" style="fillColor=#23445D;strokeColor=#FFFFFF;strokeWidth=2;fontColor=#FFFFFF;fontStyle=1" parent="1" vertex="1">
          <mxGeometry x="2110.500000000002" y="360" width="20" height="20" as="geometry" />
        </mxCell>
        <mxCell id="kH3QpJOYr6xJS1yelhLQ-283" value="W" style="fillColor=#23445D;strokeColor=#FFFFFF;strokeWidth=2;fontColor=#FFFFFF;fontStyle=1" parent="1" vertex="1">
          <mxGeometry x="2130.500000000002" y="360" width="20" height="20" as="geometry" />
        </mxCell>
        <mxCell id="kH3QpJOYr6xJS1yelhLQ-284" value="T" style="fillColor=#23445D;strokeColor=#FFFFFF;strokeWidth=2;fontColor=#FFFFFF;fontStyle=1" parent="1" vertex="1">
          <mxGeometry x="2150.500000000002" y="360" width="20" height="20" as="geometry" />
        </mxCell>
        <mxCell id="kH3QpJOYr6xJS1yelhLQ-285" value="F" style="fillColor=#23445D;strokeColor=#FFFFFF;strokeWidth=2;fontColor=#FFFFFF;fontStyle=1" parent="1" vertex="1">
          <mxGeometry x="2170.500000000002" y="360" width="20" height="20" as="geometry" />
        </mxCell>
        <mxCell id="kH3QpJOYr6xJS1yelhLQ-286" value="S" style="fillColor=#23445D;strokeColor=#FFFFFF;strokeWidth=2;fontColor=#FFFFFF;fontStyle=1" parent="1" vertex="1">
          <mxGeometry x="2190" y="360" width="20.5" height="20" as="geometry" />
        </mxCell>
        <mxCell id="kH3QpJOYr6xJS1yelhLQ-287" value="S" style="fillColor=#23445D;strokeColor=#FFFFFF;strokeWidth=2;fontColor=#FFFFFF;fontStyle=1" parent="1" vertex="1">
          <mxGeometry x="2210.500000000002" y="360" width="20" height="20" as="geometry" />
        </mxCell>
        <mxCell id="kH3QpJOYr6xJS1yelhLQ-290" value="" style="strokeColor=#DEEDFF" parent="1" vertex="1">
          <mxGeometry x="2230.000000000002" y="380.00000000002933" width="20" height="520" as="geometry" />
        </mxCell>
        <mxCell id="kH3QpJOYr6xJS1yelhLQ-291" value="" style="strokeColor=#DEEDFF" parent="1" vertex="1">
          <mxGeometry x="2250.000000000002" y="380.00000000002933" width="20" height="520" as="geometry" />
        </mxCell>
        <mxCell id="kH3QpJOYr6xJS1yelhLQ-292" value="" style="strokeColor=#DEEDFF" parent="1" vertex="1">
          <mxGeometry x="2270.000000000002" y="380.00000000003297" width="20" height="520" as="geometry" />
        </mxCell>
        <mxCell id="kH3QpJOYr6xJS1yelhLQ-293" value="" style="strokeColor=#DEEDFF" parent="1" vertex="1">
          <mxGeometry x="2290.000000000002" y="380.00000000003297" width="20" height="520" as="geometry" />
        </mxCell>
        <mxCell id="kH3QpJOYr6xJS1yelhLQ-294" value="" style="strokeColor=#DEEDFF" parent="1" vertex="1">
          <mxGeometry x="2310.000000000002" y="380.00000000003297" width="20" height="520" as="geometry" />
        </mxCell>
        <mxCell id="kH3QpJOYr6xJS1yelhLQ-295" value="" style="strokeColor=#DEEDFF;fillColor=#D4E1FF" parent="1" vertex="1">
          <mxGeometry x="2330.000000000002" y="380.0000000000184" width="20" height="520" as="geometry" />
        </mxCell>
        <mxCell id="kH3QpJOYr6xJS1yelhLQ-296" value="" style="strokeColor=#DEEDFF;fillColor=#D4E1FF" parent="1" vertex="1">
          <mxGeometry x="2350.000000000002" y="380.00000000002206" width="20" height="520" as="geometry" />
        </mxCell>
        <mxCell id="kH3QpJOYr6xJS1yelhLQ-297" value="7.19" style="fillColor=#23445D;strokeColor=#FFFFFF;strokeWidth=2;fontColor=#FFFFFF;fontStyle=1" parent="1" vertex="1">
          <mxGeometry x="2230.000000000002" y="340" width="140" height="20" as="geometry" />
        </mxCell>
        <mxCell id="kH3QpJOYr6xJS1yelhLQ-298" value="M" style="fillColor=#23445D;strokeColor=#FFFFFF;strokeWidth=2;fontColor=#FFFFFF;fontStyle=1" parent="1" vertex="1">
          <mxGeometry x="2230.000000000002" y="360" width="20" height="20" as="geometry" />
        </mxCell>
        <mxCell id="kH3QpJOYr6xJS1yelhLQ-299" value="T" style="fillColor=#23445D;strokeColor=#FFFFFF;strokeWidth=2;fontColor=#FFFFFF;fontStyle=1" parent="1" vertex="1">
          <mxGeometry x="2250.000000000002" y="360" width="20" height="20" as="geometry" />
        </mxCell>
        <mxCell id="kH3QpJOYr6xJS1yelhLQ-300" value="W" style="fillColor=#23445D;strokeColor=#FFFFFF;strokeWidth=2;fontColor=#FFFFFF;fontStyle=1" parent="1" vertex="1">
          <mxGeometry x="2270.000000000002" y="360" width="20" height="20" as="geometry" />
        </mxCell>
        <mxCell id="kH3QpJOYr6xJS1yelhLQ-301" value="T" style="fillColor=#23445D;strokeColor=#FFFFFF;strokeWidth=2;fontColor=#FFFFFF;fontStyle=1" parent="1" vertex="1">
          <mxGeometry x="2290.000000000002" y="360" width="20" height="20" as="geometry" />
        </mxCell>
        <mxCell id="kH3QpJOYr6xJS1yelhLQ-302" value="F" style="fillColor=#23445D;strokeColor=#FFFFFF;strokeWidth=2;fontColor=#FFFFFF;fontStyle=1" parent="1" vertex="1">
          <mxGeometry x="2310.000000000002" y="360" width="20" height="20" as="geometry" />
        </mxCell>
        <mxCell id="kH3QpJOYr6xJS1yelhLQ-303" value="S" style="fillColor=#23445D;strokeColor=#FFFFFF;strokeWidth=2;fontColor=#FFFFFF;fontStyle=1" parent="1" vertex="1">
          <mxGeometry x="2329.5" y="360" width="20.5" height="20" as="geometry" />
        </mxCell>
        <mxCell id="kH3QpJOYr6xJS1yelhLQ-304" value="S" style="fillColor=#23445D;strokeColor=#FFFFFF;strokeWidth=2;fontColor=#FFFFFF;fontStyle=1" parent="1" vertex="1">
          <mxGeometry x="2350.000000000002" y="360" width="20" height="20" as="geometry" />
        </mxCell>
        <mxCell id="kH3QpJOYr6xJS1yelhLQ-305" value="" style="strokeColor=#DEEDFF" parent="1" vertex="1">
          <mxGeometry x="2370.000000000002" y="380.00000000002933" width="20" height="520" as="geometry" />
        </mxCell>
        <mxCell id="kH3QpJOYr6xJS1yelhLQ-306" value="" style="strokeColor=#DEEDFF" parent="1" vertex="1">
          <mxGeometry x="2390.000000000002" y="380.00000000002933" width="20" height="520" as="geometry" />
        </mxCell>
        <mxCell id="kH3QpJOYr6xJS1yelhLQ-307" value="" style="strokeColor=#DEEDFF" parent="1" vertex="1">
          <mxGeometry x="2410.000000000002" y="380.00000000003297" width="20" height="520" as="geometry" />
        </mxCell>
        <mxCell id="kH3QpJOYr6xJS1yelhLQ-308" value="" style="strokeColor=#DEEDFF" parent="1" vertex="1">
          <mxGeometry x="2430.000000000002" y="380.00000000003297" width="20" height="520" as="geometry" />
        </mxCell>
        <mxCell id="kH3QpJOYr6xJS1yelhLQ-309" value="" style="strokeColor=#DEEDFF" parent="1" vertex="1">
          <mxGeometry x="2450.000000000002" y="380.00000000003297" width="20" height="520" as="geometry" />
        </mxCell>
        <mxCell id="kH3QpJOYr6xJS1yelhLQ-310" value="" style="strokeColor=#DEEDFF;fillColor=#D4E1FF" parent="1" vertex="1">
          <mxGeometry x="2470.000000000002" y="380.0000000000184" width="20" height="520" as="geometry" />
        </mxCell>
        <mxCell id="kH3QpJOYr6xJS1yelhLQ-311" value="" style="strokeColor=#DEEDFF;fillColor=#D4E1FF" parent="1" vertex="1">
          <mxGeometry x="2490.000000000002" y="380.00000000002206" width="20" height="520" as="geometry" />
        </mxCell>
        <mxCell id="kH3QpJOYr6xJS1yelhLQ-312" value="7.26" style="fillColor=#23445D;strokeColor=#FFFFFF;strokeWidth=2;fontColor=#FFFFFF;fontStyle=1" parent="1" vertex="1">
          <mxGeometry x="2370.000000000002" y="340" width="140" height="20" as="geometry" />
        </mxCell>
        <mxCell id="kH3QpJOYr6xJS1yelhLQ-313" value="M" style="fillColor=#23445D;strokeColor=#FFFFFF;strokeWidth=2;fontColor=#FFFFFF;fontStyle=1" parent="1" vertex="1">
          <mxGeometry x="2370.000000000002" y="360" width="20" height="20" as="geometry" />
        </mxCell>
        <mxCell id="kH3QpJOYr6xJS1yelhLQ-314" value="T" style="fillColor=#23445D;strokeColor=#FFFFFF;strokeWidth=2;fontColor=#FFFFFF;fontStyle=1" parent="1" vertex="1">
          <mxGeometry x="2390.000000000002" y="360" width="20" height="20" as="geometry" />
        </mxCell>
        <mxCell id="kH3QpJOYr6xJS1yelhLQ-315" value="W" style="fillColor=#23445D;strokeColor=#FFFFFF;strokeWidth=2;fontColor=#FFFFFF;fontStyle=1" parent="1" vertex="1">
          <mxGeometry x="2410.000000000002" y="360" width="20" height="20" as="geometry" />
        </mxCell>
        <mxCell id="kH3QpJOYr6xJS1yelhLQ-316" value="T" style="fillColor=#23445D;strokeColor=#FFFFFF;strokeWidth=2;fontColor=#FFFFFF;fontStyle=1" parent="1" vertex="1">
          <mxGeometry x="2430.000000000002" y="360" width="20" height="20" as="geometry" />
        </mxCell>
        <mxCell id="kH3QpJOYr6xJS1yelhLQ-317" value="F" style="fillColor=#23445D;strokeColor=#FFFFFF;strokeWidth=2;fontColor=#FFFFFF;fontStyle=1" parent="1" vertex="1">
          <mxGeometry x="2450.000000000002" y="360" width="20" height="20" as="geometry" />
        </mxCell>
        <mxCell id="kH3QpJOYr6xJS1yelhLQ-318" value="S" style="fillColor=#23445D;strokeColor=#FFFFFF;strokeWidth=2;fontColor=#FFFFFF;fontStyle=1" parent="1" vertex="1">
          <mxGeometry x="2469.5" y="360" width="20.5" height="20" as="geometry" />
        </mxCell>
        <mxCell id="kH3QpJOYr6xJS1yelhLQ-319" value="S" style="fillColor=#23445D;strokeColor=#FFFFFF;strokeWidth=2;fontColor=#FFFFFF;fontStyle=1" parent="1" vertex="1">
          <mxGeometry x="2490.000000000002" y="360" width="20" height="20" as="geometry" />
        </mxCell>
        <mxCell id="kH3QpJOYr6xJS1yelhLQ-320" value="" style="strokeColor=#DEEDFF" parent="1" vertex="1">
          <mxGeometry x="2510.000000000002" y="380.00000000002933" width="20" height="520" as="geometry" />
        </mxCell>
        <mxCell id="kH3QpJOYr6xJS1yelhLQ-321" value="" style="strokeColor=#DEEDFF" parent="1" vertex="1">
          <mxGeometry x="2530.000000000002" y="380.00000000002933" width="20" height="520" as="geometry" />
        </mxCell>
        <mxCell id="kH3QpJOYr6xJS1yelhLQ-322" value="" style="strokeColor=#DEEDFF" parent="1" vertex="1">
          <mxGeometry x="2550.000000000002" y="380.00000000003297" width="20" height="520" as="geometry" />
        </mxCell>
        <mxCell id="kH3QpJOYr6xJS1yelhLQ-323" value="" style="strokeColor=#DEEDFF" parent="1" vertex="1">
          <mxGeometry x="2570.000000000002" y="380.00000000003297" width="20" height="520" as="geometry" />
        </mxCell>
        <mxCell id="kH3QpJOYr6xJS1yelhLQ-324" value="" style="strokeColor=#DEEDFF" parent="1" vertex="1">
          <mxGeometry x="2590.000000000002" y="380.00000000003297" width="20" height="520" as="geometry" />
        </mxCell>
        <mxCell id="kH3QpJOYr6xJS1yelhLQ-325" value="" style="strokeColor=#DEEDFF;fillColor=#D4E1FF" parent="1" vertex="1">
          <mxGeometry x="2610.000000000002" y="380.0000000000184" width="20" height="520" as="geometry" />
        </mxCell>
        <mxCell id="kH3QpJOYr6xJS1yelhLQ-326" value="" style="strokeColor=#DEEDFF;fillColor=#D4E1FF" parent="1" vertex="1">
          <mxGeometry x="2630.000000000002" y="380.00000000002206" width="20" height="520" as="geometry" />
        </mxCell>
        <mxCell id="kH3QpJOYr6xJS1yelhLQ-327" value="8.2" style="fillColor=#23445D;strokeColor=#FFFFFF;strokeWidth=2;fontColor=#FFFFFF;fontStyle=1" parent="1" vertex="1">
          <mxGeometry x="2510.000000000002" y="340" width="140" height="20" as="geometry" />
        </mxCell>
        <mxCell id="kH3QpJOYr6xJS1yelhLQ-328" value="M" style="fillColor=#23445D;strokeColor=#FFFFFF;strokeWidth=2;fontColor=#FFFFFF;fontStyle=1" parent="1" vertex="1">
          <mxGeometry x="2510.000000000002" y="360" width="20" height="20" as="geometry" />
        </mxCell>
        <mxCell id="kH3QpJOYr6xJS1yelhLQ-329" value="T" style="fillColor=#23445D;strokeColor=#FFFFFF;strokeWidth=2;fontColor=#FFFFFF;fontStyle=1" parent="1" vertex="1">
          <mxGeometry x="2530.000000000002" y="360" width="20" height="20" as="geometry" />
        </mxCell>
        <mxCell id="kH3QpJOYr6xJS1yelhLQ-330" value="W" style="fillColor=#23445D;strokeColor=#FFFFFF;strokeWidth=2;fontColor=#FFFFFF;fontStyle=1" parent="1" vertex="1">
          <mxGeometry x="2550.000000000002" y="360" width="20" height="20" as="geometry" />
        </mxCell>
        <mxCell id="kH3QpJOYr6xJS1yelhLQ-331" value="T" style="fillColor=#23445D;strokeColor=#FFFFFF;strokeWidth=2;fontColor=#FFFFFF;fontStyle=1" parent="1" vertex="1">
          <mxGeometry x="2570.000000000002" y="360" width="20" height="20" as="geometry" />
        </mxCell>
        <mxCell id="kH3QpJOYr6xJS1yelhLQ-332" value="F" style="fillColor=#23445D;strokeColor=#FFFFFF;strokeWidth=2;fontColor=#FFFFFF;fontStyle=1" parent="1" vertex="1">
          <mxGeometry x="2590.000000000002" y="360" width="20" height="20" as="geometry" />
        </mxCell>
        <mxCell id="kH3QpJOYr6xJS1yelhLQ-333" value="S" style="fillColor=#23445D;strokeColor=#FFFFFF;strokeWidth=2;fontColor=#FFFFFF;fontStyle=1" parent="1" vertex="1">
          <mxGeometry x="2609.5" y="360" width="20.5" height="20" as="geometry" />
        </mxCell>
        <mxCell id="kH3QpJOYr6xJS1yelhLQ-334" value="S" style="fillColor=#23445D;strokeColor=#FFFFFF;strokeWidth=2;fontColor=#FFFFFF;fontStyle=1" parent="1" vertex="1">
          <mxGeometry x="2630.000000000002" y="360" width="20" height="20" as="geometry" />
        </mxCell>
        <mxCell id="kH3QpJOYr6xJS1yelhLQ-335" value="" style="strokeColor=#DEEDFF" parent="1" vertex="1">
          <mxGeometry x="2650.000000000002" y="380.00000000002933" width="20" height="520" as="geometry" />
        </mxCell>
        <mxCell id="kH3QpJOYr6xJS1yelhLQ-336" value="" style="strokeColor=#DEEDFF" parent="1" vertex="1">
          <mxGeometry x="2670.000000000002" y="380.00000000002933" width="20" height="520" as="geometry" />
        </mxCell>
        <mxCell id="kH3QpJOYr6xJS1yelhLQ-337" value="" style="strokeColor=#DEEDFF" parent="1" vertex="1">
          <mxGeometry x="2690.000000000002" y="380.00000000003297" width="20" height="520" as="geometry" />
        </mxCell>
        <mxCell id="kH3QpJOYr6xJS1yelhLQ-338" value="" style="strokeColor=#DEEDFF" parent="1" vertex="1">
          <mxGeometry x="2710.000000000002" y="380.00000000003297" width="20" height="520" as="geometry" />
        </mxCell>
        <mxCell id="kH3QpJOYr6xJS1yelhLQ-339" value="" style="strokeColor=#DEEDFF" parent="1" vertex="1">
          <mxGeometry x="2730.000000000002" y="380.00000000003297" width="20" height="520" as="geometry" />
        </mxCell>
        <mxCell id="kH3QpJOYr6xJS1yelhLQ-340" value="" style="strokeColor=#DEEDFF;fillColor=#D4E1FF" parent="1" vertex="1">
          <mxGeometry x="2750.000000000002" y="380.0000000000184" width="20" height="520" as="geometry" />
        </mxCell>
        <mxCell id="kH3QpJOYr6xJS1yelhLQ-341" value="" style="strokeColor=#DEEDFF;fillColor=#D4E1FF" parent="1" vertex="1">
          <mxGeometry x="2770.000000000002" y="380.00000000002206" width="20" height="520" as="geometry" />
        </mxCell>
        <mxCell id="kH3QpJOYr6xJS1yelhLQ-342" value="8.9" style="fillColor=#23445D;strokeColor=#FFFFFF;strokeWidth=2;fontColor=#FFFFFF;fontStyle=1" parent="1" vertex="1">
          <mxGeometry x="2650.000000000002" y="340" width="140" height="20" as="geometry" />
        </mxCell>
        <mxCell id="kH3QpJOYr6xJS1yelhLQ-343" value="M" style="fillColor=#23445D;strokeColor=#FFFFFF;strokeWidth=2;fontColor=#FFFFFF;fontStyle=1" parent="1" vertex="1">
          <mxGeometry x="2650.000000000002" y="360" width="20" height="20" as="geometry" />
        </mxCell>
        <mxCell id="kH3QpJOYr6xJS1yelhLQ-344" value="T" style="fillColor=#23445D;strokeColor=#FFFFFF;strokeWidth=2;fontColor=#FFFFFF;fontStyle=1" parent="1" vertex="1">
          <mxGeometry x="2670.000000000002" y="360" width="20" height="20" as="geometry" />
        </mxCell>
        <mxCell id="kH3QpJOYr6xJS1yelhLQ-345" value="W" style="fillColor=#23445D;strokeColor=#FFFFFF;strokeWidth=2;fontColor=#FFFFFF;fontStyle=1" parent="1" vertex="1">
          <mxGeometry x="2690.000000000002" y="360" width="20" height="20" as="geometry" />
        </mxCell>
        <mxCell id="kH3QpJOYr6xJS1yelhLQ-346" value="T" style="fillColor=#23445D;strokeColor=#FFFFFF;strokeWidth=2;fontColor=#FFFFFF;fontStyle=1" parent="1" vertex="1">
          <mxGeometry x="2710.000000000002" y="360" width="20" height="20" as="geometry" />
        </mxCell>
        <mxCell id="kH3QpJOYr6xJS1yelhLQ-347" value="F" style="fillColor=#23445D;strokeColor=#FFFFFF;strokeWidth=2;fontColor=#FFFFFF;fontStyle=1" parent="1" vertex="1">
          <mxGeometry x="2730.000000000002" y="360" width="20" height="20" as="geometry" />
        </mxCell>
        <mxCell id="kH3QpJOYr6xJS1yelhLQ-348" value="S" style="fillColor=#23445D;strokeColor=#FFFFFF;strokeWidth=2;fontColor=#FFFFFF;fontStyle=1" parent="1" vertex="1">
          <mxGeometry x="2749.5" y="360" width="20.5" height="20" as="geometry" />
        </mxCell>
        <mxCell id="kH3QpJOYr6xJS1yelhLQ-349" value="S" style="fillColor=#23445D;strokeColor=#FFFFFF;strokeWidth=2;fontColor=#FFFFFF;fontStyle=1" parent="1" vertex="1">
          <mxGeometry x="2770.000000000002" y="360" width="20" height="20" as="geometry" />
        </mxCell>
        <mxCell id="kH3QpJOYr6xJS1yelhLQ-350" value="" style="strokeColor=#DEEDFF" parent="1" vertex="1">
          <mxGeometry x="2790.000000000002" y="380.00000000002933" width="20" height="520" as="geometry" />
        </mxCell>
        <mxCell id="kH3QpJOYr6xJS1yelhLQ-351" value="" style="strokeColor=#DEEDFF" parent="1" vertex="1">
          <mxGeometry x="2810.000000000002" y="380.00000000002933" width="20" height="520" as="geometry" />
        </mxCell>
        <mxCell id="kH3QpJOYr6xJS1yelhLQ-352" value="" style="strokeColor=#DEEDFF" parent="1" vertex="1">
          <mxGeometry x="2830.000000000002" y="380.00000000003297" width="20" height="520" as="geometry" />
        </mxCell>
        <mxCell id="kH3QpJOYr6xJS1yelhLQ-353" value="" style="strokeColor=#DEEDFF" parent="1" vertex="1">
          <mxGeometry x="2850.000000000002" y="380.00000000003297" width="20" height="520" as="geometry" />
        </mxCell>
        <mxCell id="kH3QpJOYr6xJS1yelhLQ-354" value="" style="strokeColor=#DEEDFF" parent="1" vertex="1">
          <mxGeometry x="2870.000000000002" y="380.00000000003297" width="20" height="520" as="geometry" />
        </mxCell>
        <mxCell id="kH3QpJOYr6xJS1yelhLQ-355" value="" style="strokeColor=#DEEDFF;fillColor=#D4E1FF" parent="1" vertex="1">
          <mxGeometry x="2890.000000000002" y="380.0000000000184" width="20" height="520" as="geometry" />
        </mxCell>
        <mxCell id="kH3QpJOYr6xJS1yelhLQ-356" value="" style="strokeColor=#DEEDFF;fillColor=#D4E1FF" parent="1" vertex="1">
          <mxGeometry x="2910.000000000002" y="380.00000000002206" width="20" height="520" as="geometry" />
        </mxCell>
        <mxCell id="kH3QpJOYr6xJS1yelhLQ-357" value="8.16" style="fillColor=#23445D;strokeColor=#FFFFFF;strokeWidth=2;fontColor=#FFFFFF;fontStyle=1" parent="1" vertex="1">
          <mxGeometry x="2790.000000000002" y="340" width="140" height="20" as="geometry" />
        </mxCell>
        <mxCell id="kH3QpJOYr6xJS1yelhLQ-358" value="M" style="fillColor=#23445D;strokeColor=#FFFFFF;strokeWidth=2;fontColor=#FFFFFF;fontStyle=1" parent="1" vertex="1">
          <mxGeometry x="2790.000000000002" y="360" width="20" height="20" as="geometry" />
        </mxCell>
        <mxCell id="kH3QpJOYr6xJS1yelhLQ-359" value="T" style="fillColor=#23445D;strokeColor=#FFFFFF;strokeWidth=2;fontColor=#FFFFFF;fontStyle=1" parent="1" vertex="1">
          <mxGeometry x="2810.000000000002" y="360" width="20" height="20" as="geometry" />
        </mxCell>
        <mxCell id="kH3QpJOYr6xJS1yelhLQ-360" value="W" style="fillColor=#23445D;strokeColor=#FFFFFF;strokeWidth=2;fontColor=#FFFFFF;fontStyle=1" parent="1" vertex="1">
          <mxGeometry x="2830.000000000002" y="360" width="20" height="20" as="geometry" />
        </mxCell>
        <mxCell id="kH3QpJOYr6xJS1yelhLQ-361" value="T" style="fillColor=#23445D;strokeColor=#FFFFFF;strokeWidth=2;fontColor=#FFFFFF;fontStyle=1" parent="1" vertex="1">
          <mxGeometry x="2850.000000000002" y="360" width="20" height="20" as="geometry" />
        </mxCell>
        <mxCell id="kH3QpJOYr6xJS1yelhLQ-362" value="F" style="fillColor=#23445D;strokeColor=#FFFFFF;strokeWidth=2;fontColor=#FFFFFF;fontStyle=1" parent="1" vertex="1">
          <mxGeometry x="2870.000000000002" y="360" width="20" height="20" as="geometry" />
        </mxCell>
        <mxCell id="kH3QpJOYr6xJS1yelhLQ-363" value="S" style="fillColor=#23445D;strokeColor=#FFFFFF;strokeWidth=2;fontColor=#FFFFFF;fontStyle=1" parent="1" vertex="1">
          <mxGeometry x="2889.5" y="360" width="20.5" height="20" as="geometry" />
        </mxCell>
        <mxCell id="kH3QpJOYr6xJS1yelhLQ-364" value="S" style="fillColor=#23445D;strokeColor=#FFFFFF;strokeWidth=2;fontColor=#FFFFFF;fontStyle=1" parent="1" vertex="1">
          <mxGeometry x="2910.000000000002" y="360" width="20" height="20" as="geometry" />
        </mxCell>
        <mxCell id="kH3QpJOYr6xJS1yelhLQ-365" value="" style="strokeColor=#DEEDFF" parent="1" vertex="1">
          <mxGeometry x="2930.000000000002" y="380.00000000002933" width="20" height="520" as="geometry" />
        </mxCell>
        <mxCell id="kH3QpJOYr6xJS1yelhLQ-366" value="" style="strokeColor=#DEEDFF" parent="1" vertex="1">
          <mxGeometry x="2950.000000000002" y="380.00000000002933" width="20" height="520" as="geometry" />
        </mxCell>
        <mxCell id="kH3QpJOYr6xJS1yelhLQ-367" value="" style="strokeColor=#DEEDFF" parent="1" vertex="1">
          <mxGeometry x="2970.000000000002" y="380.00000000003297" width="20" height="520" as="geometry" />
        </mxCell>
        <mxCell id="kH3QpJOYr6xJS1yelhLQ-368" value="" style="strokeColor=#DEEDFF" parent="1" vertex="1">
          <mxGeometry x="2990.000000000002" y="380.00000000003297" width="20" height="520" as="geometry" />
        </mxCell>
        <mxCell id="kH3QpJOYr6xJS1yelhLQ-369" value="" style="strokeColor=#DEEDFF" parent="1" vertex="1">
          <mxGeometry x="3010.000000000002" y="380.00000000003297" width="20" height="520" as="geometry" />
        </mxCell>
        <mxCell id="kH3QpJOYr6xJS1yelhLQ-370" value="" style="strokeColor=#DEEDFF;fillColor=#D4E1FF" parent="1" vertex="1">
          <mxGeometry x="3030.000000000002" y="380.0000000000184" width="20" height="520" as="geometry" />
        </mxCell>
        <mxCell id="kH3QpJOYr6xJS1yelhLQ-371" value="" style="strokeColor=#DEEDFF;fillColor=#D4E1FF" parent="1" vertex="1">
          <mxGeometry x="3050.000000000002" y="380.00000000002206" width="20" height="520" as="geometry" />
        </mxCell>
        <mxCell id="kH3QpJOYr6xJS1yelhLQ-372" value="8.23" style="fillColor=#23445D;strokeColor=#FFFFFF;strokeWidth=2;fontColor=#FFFFFF;fontStyle=1" parent="1" vertex="1">
          <mxGeometry x="2930.000000000002" y="340" width="140" height="20" as="geometry" />
        </mxCell>
        <mxCell id="kH3QpJOYr6xJS1yelhLQ-373" value="M" style="fillColor=#23445D;strokeColor=#FFFFFF;strokeWidth=2;fontColor=#FFFFFF;fontStyle=1" parent="1" vertex="1">
          <mxGeometry x="2930.000000000002" y="360" width="20" height="20" as="geometry" />
        </mxCell>
        <mxCell id="kH3QpJOYr6xJS1yelhLQ-374" value="T" style="fillColor=#23445D;strokeColor=#FFFFFF;strokeWidth=2;fontColor=#FFFFFF;fontStyle=1" parent="1" vertex="1">
          <mxGeometry x="2950.000000000002" y="360" width="20" height="20" as="geometry" />
        </mxCell>
        <mxCell id="kH3QpJOYr6xJS1yelhLQ-375" value="W" style="fillColor=#23445D;strokeColor=#FFFFFF;strokeWidth=2;fontColor=#FFFFFF;fontStyle=1" parent="1" vertex="1">
          <mxGeometry x="2970.000000000002" y="360" width="20" height="20" as="geometry" />
        </mxCell>
        <mxCell id="kH3QpJOYr6xJS1yelhLQ-376" value="T" style="fillColor=#23445D;strokeColor=#FFFFFF;strokeWidth=2;fontColor=#FFFFFF;fontStyle=1" parent="1" vertex="1">
          <mxGeometry x="2990.000000000002" y="360" width="20" height="20" as="geometry" />
        </mxCell>
        <mxCell id="kH3QpJOYr6xJS1yelhLQ-377" value="F" style="fillColor=#23445D;strokeColor=#FFFFFF;strokeWidth=2;fontColor=#FFFFFF;fontStyle=1" parent="1" vertex="1">
          <mxGeometry x="3010.000000000002" y="360" width="20" height="20" as="geometry" />
        </mxCell>
        <mxCell id="kH3QpJOYr6xJS1yelhLQ-378" value="S" style="fillColor=#23445D;strokeColor=#FFFFFF;strokeWidth=2;fontColor=#FFFFFF;fontStyle=1" parent="1" vertex="1">
          <mxGeometry x="3029.5" y="360" width="20.5" height="20" as="geometry" />
        </mxCell>
        <mxCell id="kH3QpJOYr6xJS1yelhLQ-379" value="S" style="fillColor=#23445D;strokeColor=#FFFFFF;strokeWidth=2;fontColor=#FFFFFF;fontStyle=1" parent="1" vertex="1">
          <mxGeometry x="3050.000000000002" y="360" width="20" height="20" as="geometry" />
        </mxCell>
        <mxCell id="kH3QpJOYr6xJS1yelhLQ-380" value="" style="strokeColor=#DEEDFF" parent="1" vertex="1">
          <mxGeometry x="3070.000000000002" y="380.00000000002933" width="20" height="520" as="geometry" />
        </mxCell>
        <mxCell id="kH3QpJOYr6xJS1yelhLQ-381" value="" style="strokeColor=#DEEDFF" parent="1" vertex="1">
          <mxGeometry x="3090.000000000002" y="380.00000000002933" width="20" height="520" as="geometry" />
        </mxCell>
        <mxCell id="kH3QpJOYr6xJS1yelhLQ-382" value="" style="strokeColor=#DEEDFF" parent="1" vertex="1">
          <mxGeometry x="3110.000000000002" y="380.00000000003297" width="20" height="520" as="geometry" />
        </mxCell>
        <mxCell id="kH3QpJOYr6xJS1yelhLQ-383" value="" style="strokeColor=#DEEDFF" parent="1" vertex="1">
          <mxGeometry x="3130.000000000002" y="380.00000000003297" width="20" height="520" as="geometry" />
        </mxCell>
        <mxCell id="kH3QpJOYr6xJS1yelhLQ-384" value="" style="strokeColor=#DEEDFF" parent="1" vertex="1">
          <mxGeometry x="3150.000000000002" y="380.00000000003297" width="20" height="520" as="geometry" />
        </mxCell>
        <mxCell id="kH3QpJOYr6xJS1yelhLQ-385" value="" style="strokeColor=#DEEDFF;fillColor=#D4E1FF" parent="1" vertex="1">
          <mxGeometry x="3170.000000000002" y="380.0000000000184" width="20" height="520" as="geometry" />
        </mxCell>
        <mxCell id="kH3QpJOYr6xJS1yelhLQ-386" value="" style="strokeColor=#DEEDFF;fillColor=#D4E1FF" parent="1" vertex="1">
          <mxGeometry x="3190.000000000002" y="380.00000000002206" width="20" height="520" as="geometry" />
        </mxCell>
        <mxCell id="kH3QpJOYr6xJS1yelhLQ-387" value="8.30" style="fillColor=#23445D;strokeColor=#FFFFFF;strokeWidth=2;fontColor=#FFFFFF;fontStyle=1" parent="1" vertex="1">
          <mxGeometry x="3070.000000000002" y="340" width="140" height="20" as="geometry" />
        </mxCell>
        <mxCell id="kH3QpJOYr6xJS1yelhLQ-388" value="M" style="fillColor=#23445D;strokeColor=#FFFFFF;strokeWidth=2;fontColor=#FFFFFF;fontStyle=1" parent="1" vertex="1">
          <mxGeometry x="3070.000000000002" y="360" width="20" height="20" as="geometry" />
        </mxCell>
        <mxCell id="kH3QpJOYr6xJS1yelhLQ-389" value="T" style="fillColor=#23445D;strokeColor=#FFFFFF;strokeWidth=2;fontColor=#FFFFFF;fontStyle=1" parent="1" vertex="1">
          <mxGeometry x="3090.000000000002" y="360" width="20" height="20" as="geometry" />
        </mxCell>
        <mxCell id="kH3QpJOYr6xJS1yelhLQ-390" value="W" style="fillColor=#23445D;strokeColor=#FFFFFF;strokeWidth=2;fontColor=#FFFFFF;fontStyle=1" parent="1" vertex="1">
          <mxGeometry x="3110.000000000002" y="360" width="20" height="20" as="geometry" />
        </mxCell>
        <mxCell id="kH3QpJOYr6xJS1yelhLQ-391" value="T" style="fillColor=#23445D;strokeColor=#FFFFFF;strokeWidth=2;fontColor=#FFFFFF;fontStyle=1" parent="1" vertex="1">
          <mxGeometry x="3130.000000000002" y="360" width="20" height="20" as="geometry" />
        </mxCell>
        <mxCell id="kH3QpJOYr6xJS1yelhLQ-392" value="F" style="fillColor=#23445D;strokeColor=#FFFFFF;strokeWidth=2;fontColor=#FFFFFF;fontStyle=1" parent="1" vertex="1">
          <mxGeometry x="3150.000000000002" y="360" width="20" height="20" as="geometry" />
        </mxCell>
        <mxCell id="kH3QpJOYr6xJS1yelhLQ-393" value="S" style="fillColor=#23445D;strokeColor=#FFFFFF;strokeWidth=2;fontColor=#FFFFFF;fontStyle=1" parent="1" vertex="1">
          <mxGeometry x="3169.5" y="360" width="20.5" height="20" as="geometry" />
        </mxCell>
        <mxCell id="kH3QpJOYr6xJS1yelhLQ-394" value="S" style="fillColor=#23445D;strokeColor=#FFFFFF;strokeWidth=2;fontColor=#FFFFFF;fontStyle=1" parent="1" vertex="1">
          <mxGeometry x="3190.000000000002" y="360" width="20" height="20" as="geometry" />
        </mxCell>
        <mxCell id="kH3QpJOYr6xJS1yelhLQ-425" value="" style="strokeColor=#DEEDFF;fillColor=#D4E1FF" parent="1" vertex="1">
          <mxGeometry x="1386.5000000000016" y="380.00000000002206" width="20" height="520" as="geometry" />
        </mxCell>
        <mxCell id="kH3QpJOYr6xJS1yelhLQ-426" value="IRS开发" style="shape=mxgraph.flowchart.process;fillColor=#d5e8d4;strokeColor=#82b366;strokeWidth=2;opacity=100" parent="1" vertex="1">
          <mxGeometry x="1247" y="520" width="300" height="20" as="geometry" />
        </mxCell>
        <mxCell id="kH3QpJOYr6xJS1yelhLQ-427" value="IRS一轮测试" style="shape=mxgraph.flowchart.process;fillColor=#6a00ff;strokeColor=#3700CC;strokeWidth=2;opacity=50;fontColor=#ffffff;" parent="1" vertex="1">
          <mxGeometry x="1726.5" y="560" width="303.5" height="20" as="geometry" />
        </mxCell>
        <mxCell id="kH3QpJOYr6xJS1yelhLQ-428" value="IRS Bug修复" style="shape=mxgraph.flowchart.process;fillColor=#d5e8d4;strokeColor=#82b366;strokeWidth=2;opacity=50" parent="1" vertex="1">
          <mxGeometry x="1870.75" y="580" width="259.5" height="20" as="geometry" />
        </mxCell>
        <mxCell id="kH3QpJOYr6xJS1yelhLQ-429" value="IRS二轮测试" style="shape=mxgraph.flowchart.process;fillColor=#6a00ff;strokeColor=#3700CC;strokeWidth=2;opacity=50;fontColor=#ffffff;" parent="1" vertex="1">
          <mxGeometry x="2130.5" y="600" width="139.5" height="20" as="geometry" />
        </mxCell>
        <mxCell id="kH3QpJOYr6xJS1yelhLQ-430" value="Bug修复" style="shape=mxgraph.flowchart.process;fillColor=#d5e8d4;strokeColor=#82b366;strokeWidth=2;opacity=50" parent="1" vertex="1">
          <mxGeometry x="2170" y="620" width="140" height="20" as="geometry" />
        </mxCell>
        <mxCell id="kH3QpJOYr6xJS1yelhLQ-431" value="用户验收&amp;优化" style="shape=mxgraph.flowchart.process;fillColor=#AE4132;strokeColor=none;strokeWidth=2;opacity=50" parent="1" vertex="1">
          <mxGeometry x="1950" y="640" width="380" height="20" as="geometry" />
        </mxCell>
        <mxCell id="kH3QpJOYr6xJS1yelhLQ-432" value="上线准备、上线" style="shape=mxgraph.flowchart.process;fillColor=#d5e8d4;strokeColor=#82b366;strokeWidth=2;opacity=50" parent="1" vertex="1">
          <mxGeometry x="2370" y="660" width="100" height="20" as="geometry" />
        </mxCell>
        <mxCell id="q0pjD09g4CacSyVAElqI-241" value="IRS集成测试" style="align=left;strokeColor=#DEEDFF;fillColor=#FFFFFF;" vertex="1" parent="1">
          <mxGeometry x="126.50000000000026" y="539.9999999999999" width="319.9999999999998" height="20" as="geometry" />
        </mxCell>
        <mxCell id="q0pjD09g4CacSyVAElqI-242" value="IRS一轮测试" style="align=left;strokeColor=#DEEDFF" vertex="1" parent="1">
          <mxGeometry x="126.50000000000027" y="559.9999999999998" width="319.9999999999997" height="20.000000000000014" as="geometry" />
        </mxCell>
        <mxCell id="q0pjD09g4CacSyVAElqI-243" value="IRS Bug修复" style="align=left;strokeColor=#DEEDFF" vertex="1" parent="1">
          <mxGeometry x="126.5" y="580.0000000000002" width="320" height="20" as="geometry" />
        </mxCell>
        <mxCell id="q0pjD09g4CacSyVAElqI-244" value="IRS二轮测试" style="align=left;strokeColor=#DEEDFF" vertex="1" parent="1">
          <mxGeometry x="126.49999999999991" y="600.0000000000002" width="320.0000000000001" height="20" as="geometry" />
        </mxCell>
        <mxCell id="q0pjD09g4CacSyVAElqI-245" value="IRS Bug修复" style="align=left;strokeColor=#DEEDFF" vertex="1" parent="1">
          <mxGeometry x="126.4999999999999" y="620.0000000000005" width="320.0000000000001" height="20" as="geometry" />
        </mxCell>
        <mxCell id="q0pjD09g4CacSyVAElqI-246" value="IRS用户验收&amp;优化" style="align=left;strokeColor=#DEEDFF" vertex="1" parent="1">
          <mxGeometry x="126.50000000000063" y="640.0000000000007" width="319.9999999999994" height="20" as="geometry" />
        </mxCell>
        <mxCell id="q0pjD09g4CacSyVAElqI-247" value="IRS上线准备、上线" style="align=left;strokeColor=#B20000;fillColor=#e51400;fontColor=#ffffff;" vertex="1" parent="1">
          <mxGeometry x="126.5" y="660" width="320" height="20" as="geometry" />
        </mxCell>
        <mxCell id="q0pjD09g4CacSyVAElqI-248" value="8" style="strokeColor=#DEEDFF;fillColor=#FFFFFF;" vertex="1" parent="1">
          <mxGeometry x="86.50000000000026" y="519.9999999999999" width="40" height="20" as="geometry" />
        </mxCell>
        <mxCell id="q0pjD09g4CacSyVAElqI-249" value="53 days" style="strokeColor=#DEEDFF;fillColor=#FFFFFF;" vertex="1" parent="1">
          <mxGeometry x="446.500000000002" y="519.9999999999998" width="80.00000000000028" height="20" as="geometry" />
        </mxCell>
        <mxCell id="q0pjD09g4CacSyVAElqI-250" value="3.29" style="strokeColor=#DEEDFF;fillColor=#FFFFFF;" vertex="1" parent="1">
          <mxGeometry x="526.5000000000023" y="519.9999999999998" width="80.00000000000028" height="20" as="geometry" />
        </mxCell>
        <mxCell id="q0pjD09g4CacSyVAElqI-251" value="6.14" style="strokeColor=#DEEDFF;fillColor=#FFFFFF;" vertex="1" parent="1">
          <mxGeometry x="606.5000000000018" y="520.0000000000001" width="80.00000000000028" height="20" as="geometry" />
        </mxCell>
        <mxCell id="q0pjD09g4CacSyVAElqI-252" value="IRS开发" style="align=left;strokeColor=#DEEDFF;fillColor=#FFFFFF;" vertex="1" parent="1">
          <mxGeometry x="126.50000000000026" y="519.9999999999999" width="319.9999999999998" height="20" as="geometry" />
        </mxCell>
      </root>
    </mxGraphModel>
  </diagram>
</mxfile>
